<?xml version="1.0" encoding="UTF-8" standalone="no"?><!DOCTYPE svg PUBLIC "-//W3C//DTD SVG 1.1//EN" "http://www.w3.org/Graphics/SVG/1.1/DTD/svg11.dtd"><svg width="100%" height="100%" viewBox="0 0 5690 1769" version="1.1" xmlns="http://www.w3.org/2000/svg" xmlns:xlink="http://www.w3.org/1999/xlink" xml:space="preserve" xmlns:serif="http://www.serif.com/" style="fill-rule:evenodd;clip-rule:evenodd;stroke-linejoin:round;stroke-miterlimit:2;"><clipPath id="_clip1"><rect x="0" y="0" width="5689.486" height="1769"/></clipPath><g clip-path="url(#_clip1)"><path d="M690.127,145.268c18.156,7.926 18.156,7.926 37.269,18.983c7.011,4.013 14.022,8.025 21.247,12.159c7.25,4.252 14.5,8.502 21.969,12.882l21.72,12.465c110.458,63.684 110.458,63.684 132.581,85.807c3.92,34.603 -3.979,54.82 -21.344,84.487c-3.961,6.878 -7.925,13.758 -12.006,20.844c-3.082,5.155 -6.162,10.308 -9.338,15.619l25.347,7.115c126.753,42.517 270.105,136.903 344.619,249.014c4.863,19.454 4.863,19.454 7.115,35.573c-5.667,3.183 -11.336,6.366 -17.176,9.644c-79.419,45.313 -128.534,84.272 -163.361,171.337c-13.619,77.629 -2.095,149.229 40.465,216.554c12.006,22.234 12.006,22.234 12.006,42.244c-7.892,25.154 -17.518,49.156 -27.653,73.482c-11.688,30.02 -20.661,60.744 -29.766,91.629c-6.055,19.413 -13.01,38.023 -20.844,56.779c8.145,2.421 8.145,2.421 16.452,4.892c29.168,10.382 56.71,23.089 84.792,36.073c25.174,11.29 50.657,20.875 76.622,30.182l0,7.115c-167.263,5.927 -360.598,-5.249 -505.143,-99.605l0,-7.115c5.852,-0.615 11.703,-1.229 17.731,-1.861c77.711,-9.781 134.142,-28.355 185.233,-89.49c54.067,-79.31 62.84,-180.979 49.831,-273.999c-12.272,-62.383 -33.567,-121.808 -86.044,-161.136c-36.002,-20.946 -68.042,-30.635 -108.944,-38.242c-39.027,-7.995 -67.82,-17.458 -100.495,-40.021c-1.912,5.129 -3.825,10.259 -5.795,15.542c-14.447,34.311 -35.054,64.966 -54.68,96.515c-4.228,6.905 -8.456,13.812 -12.812,20.927l-12.311,19.871c-3.71,5.995 -7.419,11.992 -11.242,18.168c-9.88,13.959 -9.88,13.959 -24.109,21.073c-45.849,5.119 -70.835,-8.724 -108.054,-32.46c-10.633,-6.543 -21.267,-13.085 -31.905,-19.621c-5.196,-3.239 -10.39,-6.48 -15.743,-9.818c-27.718,-17.033 -56.227,-32.682 -84.611,-48.572c-15.813,-10.477 -15.813,-10.477 -30.042,-31.822c-6.024,-45.886 9.002,-70.477 33.35,-107.164c7.221,-11.331 14.427,-22.669 21.622,-34.017c3.808,-5.952 7.617,-11.905 11.541,-18.037c20.183,-32.035 39.277,-64.703 58.438,-97.355c3.912,-6.639 7.826,-13.279 11.857,-20.12c20.507,-34.801 40.955,-69.636 61.396,-104.477c11.411,-19.428 22.862,-38.836 34.316,-58.239c6.736,-11.442 13.45,-22.9 20.149,-34.364c11.329,-19.38 22.731,-38.718 34.142,-58.051c3.499,-6.022 6.999,-12.045 10.604,-18.248c52.413,-88.349 52.413,-88.349 101.007,-83.136l0,-0.003Zm176.089,346.842l-0.002,-0.002c-48.46,-26.47 -91.486,-15.986 -131.621,18.677c-20.081,24.901 -20.081,24.901 -18.648,91.908c4.16,30.336 22.126,49.872 45.495,68.924c29.004,14.961 60.795,11.592 92.324,7.254c32.901,-12.6 48.832,-32.506 64.032,-64.032c4.885,-34.048 7.887,-65.96 -11.116,-95.605c-5.896,-3.779 -11.618,-7.448 -17.342,-11.116c-7.861,-5.442 -15.492,-10.725 -23.123,-16.008Zm-197.433,-240.121l0,-0.002c-10.588,17.833 -21.313,35.523 -32.494,52.993c-27.097,41.882 -52.635,84.424 -77.38,127.732c-35.462,62.332 -71.107,124.236 -110.238,184.348c-18.725,27.741 -33.153,48.304 -28.903,83.153c12.094,2.42 23.834,4.767 35.573,7.115c7.071,-14.878 14.487,-28.856 23.441,-42.697c23.135,-33.666 44.713,-67.941 65.431,-103.14c7.677,-13.139 15.363,-26.275 23.053,-39.408c4.175,-7.12 8.225,-14.031 12.277,-20.941c12.672,-21.619 25.418,-43.178 38.363,-64.633l13.163,-21.687c8.418,-13.962 16.84,-27.923 25.263,-41.882c22.807,-37.127 45.378,-69.14 48.024,-113.836c-17.965,-3.594 -17.965,-3.594 -35.573,-7.115Z" style="fill:#055584;"/><path d="M206.326,1333.423c53.019,-1.455 106.031,-2.445 159.065,-3.126c18.004,-0.285 36.007,-0.671 54.006,-1.168c186.455,-5.001 186.455,-5.001 263.613,61.211c61.835,35.797 130.464,59.77 199.212,78.261c7.988,2.44 15.976,4.878 24.206,7.392c114.307,31.987 235.087,27.042 352.873,28.181c-22.51,22.842 -44.309,43.101 -70.702,61.365c-5.787,4.054 -11.574,8.107 -17.536,12.284c-19.783,12.554 -40.163,22.731 -61.171,33.071c6.815,0.067 13.628,0.133 20.649,0.201c25.516,0.285 51.024,0.755 76.535,1.276c10.998,0.2 21.996,0.352 32.996,0.451c128,1.24 128,1.24 174.863,46.54c18.865,36.679 22.234,66.761 22.234,108.054l-1437.171,0c0,-52.378 6.49,-72.976 35.573,-113.836c28.05,-26.093 45.589,-36.355 83.421,-37.035c6.979,-0.142 13.957,-0.283 21.148,-0.43c11.328,-0.178 11.328,-0.178 22.886,-0.36c7.718,-0.149 15.436,-0.295 23.388,-0.447c24.72,-0.466 49.441,-0.884 74.161,-1.303c16.73,-0.307 33.461,-0.618 50.193,-0.931c41.076,-0.763 82.153,-1.487 123.229,-2.182c-3.886,-1.892 -7.774,-3.784 -11.779,-5.732c-5.111,-2.515 -10.22,-5.029 -15.486,-7.621c-5.061,-2.479 -10.122,-4.957 -15.335,-7.511c-91.266,-48.419 -148.999,-149.603 -185.07,-242.382l0,-14.229l-0.002,0.005Z" style="fill:#1b9531;fill-rule:nonzero;"/><path d="M4731.277,707.33l128.065,0l0,604.75l697.24,0c4.506,-114.546 4.506,-114.546 -21.344,-149.409c-17.545,-3.249 -17.545,-3.249 -38.278,-2.737c-8.003,-0.072 -16.006,-0.143 -24.252,-0.219c-8.686,0.022 -17.371,0.043 -26.32,0.065c-8.896,-0.077 -17.794,-0.154 -26.96,-0.234c-28.541,-0.244 -57.081,-0.359 -85.624,-0.434c-37.475,-0.097 -74.945,-0.343 -112.419,-0.668c-8.642,0.022 -17.285,0.043 -26.188,0.065c-8.07,-0.072 -16.141,-0.143 -24.457,-0.219c-7.083,-0.015 -14.166,-0.029 -21.462,-0.044c-31.786,-4.373 -50.029,-18.344 -71.16,-41.824c-17.313,-24.734 -23.374,-47.536 -22.872,-77.79c16.836,-92.958 87.236,-170.235 161.609,-222.807c108.496,-72.814 223.751,-107.371 353.957,-101.385l0,135.18c-17.022,0.587 -34.043,1.175 -51.581,1.779c-105.081,5.654 -210.564,47.396 -282.809,126.285c-7.233,11.787 -14.36,23.637 -21.344,35.573c3.91,0.041 7.82,0.084 11.85,0.126c41.099,0.459 82.192,1.06 123.287,1.74c15.289,0.236 30.58,0.435 45.871,0.598c200.114,2.186 200.114,2.186 253.433,42.447c30.946,42.924 38.452,75.333 38.464,126.98c0.055,6.173 0.108,12.344 0.164,18.703c0.077,12.993 0.097,25.987 0.065,38.981c-0.007,19.85 0.29,39.681 0.604,59.528c0.038,12.66 0.056,25.318 0.056,37.977c0.116,5.908 0.234,11.814 0.353,17.902c-0.067,5.558 -0.133,11.114 -0.2,16.84c0.015,4.848 0.029,9.695 0.044,14.69c-7.675,25.68 -18.119,34.782 -39.995,50.369c-28.12,5.358 -55.904,4.931 -84.459,4.716c-8.553,0.073 -17.106,0.147 -25.919,0.224c-23.403,0.159 -46.8,0.159 -70.205,0.073c-19.556,-0.051 -39.109,0.01 -58.666,0.07c-46.137,0.142 -92.271,0.102 -138.409,-0.055c-47.567,-0.159 -95.125,-0.034 -142.69,0.236c-40.877,0.222 -81.751,0.278 -122.63,0.2c-24.397,-0.046 -48.793,-0.032 -73.19,0.138c-27.204,0.142 -54.395,0.012 -81.599,-0.19c-12.098,0.147 -12.098,0.147 -24.442,0.295c-60.819,-0.902 -60.819,-0.902 -82.831,-23.127c-16.505,-32.684 -17.531,-57.361 -16.799,-93.467c-0.005,-6.738 -0.01,-13.474 -0.015,-20.417c0.024,-22.177 0.301,-44.345 0.581,-66.52c0.067,-15.412 0.118,-30.824 0.152,-46.235c0.135,-40.494 0.485,-80.985 0.879,-121.479c0.364,-41.348 0.526,-82.696 0.705,-124.045c0.381,-81.08 1.007,-162.155 1.737,-243.234l0,0.005Z" style="fill:#095384;fill-rule:nonzero;"/><path d="M3955.772,935l135.183,0l0,377.079l135.18,0l0,-369.965l135.18,0l0,369.965l135.18,0l0,-369.965l128.065,0c0.804,59.683 1.457,119.361 1.842,179.046c0.186,27.717 0.437,55.428 0.84,83.143c0.388,26.757 0.599,53.509 0.692,80.268c0.065,10.197 0.193,20.396 0.386,30.592c0.26,14.304 0.273,28.61 0.277,42.915c0.079,8.136 0.159,16.273 0.239,24.657c-5.65,28.837 -17.094,39.408 -39.852,57.409c-19.838,3.13 -35.151,4.204 -54.834,3.475c-7.742,-0.075 -7.742,-0.075 -15.639,-0.152c-16.389,-0.198 -32.761,-0.644 -49.143,-1.098c-11.148,-0.179 -22.299,-0.342 -33.447,-0.487c-27.247,-0.391 -54.482,-1.004 -81.722,-1.737c-2.348,-7.044 -4.696,-14.087 -7.115,-21.344c-3.579,3.478 -7.158,6.958 -10.846,10.542c-23.736,14.558 -44.787,13.483 -71.752,12.887c-5.17,-0.031 -10.343,-0.06 -15.67,-0.092c-16.457,-0.12 -32.907,-0.388 -49.363,-0.659c-11.181,-0.108 -22.364,-0.205 -33.544,-0.292c-27.358,-0.236 -54.713,-0.603 -82.069,-1.042c0.14,6.695 0.28,13.389 0.423,20.285c-0.854,45.091 -33.681,90.378 -64.456,122.008c-77.703,61.377 -152.458,72.326 -249.014,64.032c-62.929,-10.605 -122.066,-49.329 -160.931,-99.636c-32.834,-47.464 -42.442,-91.363 -41.061,-148.294c0.041,-6.384 0.08,-12.769 0.121,-19.346c0.157,-20.152 0.514,-40.296 0.878,-60.445c0.143,-13.761 0.273,-27.524 0.389,-41.285c0.287,-33.527 0.845,-67.036 1.39,-100.565l128.065,0c0.183,17.912 0.367,35.822 0.557,54.277c0.273,17.473 0.594,34.945 0.92,52.418c0.2,12.082 0.352,24.165 0.451,36.247c0.154,17.437 0.487,34.863 0.85,52.295c0.009,5.346 0.017,10.691 0.027,16.198c1.069,39.02 10.826,62.127 32.767,94.496c30.158,25.767 66.17,32.75 105.025,30.737c37.088,-5.307 64.107,-14.441 90.185,-41.855c18.388,-28.685 19.268,-45.248 19.693,-79.557c0.07,-4.93 0.14,-9.858 0.213,-14.936c0.225,-16.322 0.401,-32.645 0.577,-48.967c0.147,-11.306 0.295,-22.611 0.447,-33.915c0.393,-29.779 0.744,-59.559 1.088,-89.338c0.357,-30.379 0.753,-60.756 1.146,-91.133c0.765,-59.622 1.484,-119.245 2.182,-178.869Z" style="fill:#0a5484;fill-rule:nonzero;"/><path d="M3052.208,700.215l128.065,0c0.323,66.489 0.584,132.977 0.738,199.467c0.073,30.879 0.174,61.76 0.336,92.639c0.155,29.848 0.239,59.693 0.277,89.541c0.026,11.34 0.077,22.679 0.154,34.019c0.705,107.941 -5.387,213.766 -84.325,295.583c-85.291,73.431 -246.917,109.104 -358.292,106.943c-2.416,-13.332 -4.776,-26.675 -7.115,-40.021c-1.32,-7.429 -2.642,-14.857 -4.002,-22.512c-3.021,-22.174 -3.649,-43.189 -3.113,-65.533c15.849,-3.603 31.712,-7.149 47.58,-10.672c8.831,-1.981 17.664,-3.961 26.764,-6.004c21.165,-3.912 39.447,-5.65 60.836,-4.668c-15.779,-217.792 -69.414,-393.215 -213.441,-562.062c11.288,-27.768 29.409,-45.074 50.693,-65.812c6.475,-6.347 12.95,-12.694 19.621,-19.232c4.971,-4.805 9.941,-9.612 15.064,-14.564c32.464,25.229 56.96,51.173 80.93,84.487c3.372,4.675 6.745,9.35 10.221,14.167c105.163,148.905 158.144,317.5 164.98,498.981c34.425,-28.844 47.76,-55.701 56.917,-99.605c3.251,-38.913 3.483,-77.737 3.64,-116.754c0.12,-11.234 0.249,-22.468 0.388,-33.701c0.336,-29.369 0.55,-58.737 0.736,-88.107c0.213,-30.049 0.543,-60.096 0.864,-90.146c0.61,-58.812 1.079,-117.623 1.487,-176.436l-0.002,0.002Z" style="fill:#2f9739;fill-rule:nonzero;"/><path d="M1344.679,700.215l113.836,0l0,85.376c7.126,-0.294 14.253,-0.587 21.593,-0.89c29.496,0.931 52.964,6.536 81.125,15.118c13.192,3.961 13.192,3.961 26.653,8.005c6.613,2.054 13.225,4.108 20.038,6.226c-6.934,41.278 -14.319,77.122 -35.573,113.836c-31.009,-3.647 -56.625,-9.549 -85.376,-21.344c-42.541,-10.377 -105.64,-20.328 -144.573,2.613c-13.232,11.027 -13.232,11.027 -17.287,28.514c7.132,24.962 20.774,33.293 42.799,45.828c27.688,11.985 56.234,18.89 85.475,26.101c70.746,17.75 136.432,44.888 180.547,105.131c18.411,37.516 14.398,78.406 9.56,119.088c-18.409,51.955 -62.639,87.832 -110.277,112.501c-25.089,8.512 -48.391,12.878 -74.704,15.564l0,85.376l-113.836,0l0,-85.376c-7.163,0.275 -14.326,0.55 -21.706,0.833c-28.809,-0.855 -51.69,-5.944 -79.234,-14.174c-8.466,-2.476 -16.93,-4.952 -25.652,-7.505c-18.289,-6.104 -34.449,-12.576 -51.275,-21.844c6.934,-41.278 14.319,-77.122 35.573,-113.836c32.247,6.48 62.818,13.508 93.381,25.791c44.654,15.491 94.84,15.311 141.404,9.782c17.459,-8.321 17.459,-8.321 28.459,-21.344c2.377,-22.239 2.377,-22.239 0,-42.688c-35.578,-20.33 -68.626,-32.045 -108.5,-41.799c-76.931,-19.326 -145.248,-46.317 -190.318,-114.725c-14.212,-42.635 -15.539,-95.876 -1.168,-138.653c30.408,-52.549 79.081,-82.332 135.791,-100.078c14.785,-3.167 14.785,-3.167 43.245,-3.167l0,-78.261l-0,0.002Z" style="fill:#35993d;fill-rule:nonzero;"/><path d="M2426.113,935l135.18,0c0.644,58.631 1.166,117.261 1.475,175.896c0.149,27.228 0.35,54.455 0.673,81.683c0.311,26.294 0.48,52.587 0.553,78.884c0.053,10.013 0.155,20.026 0.309,30.039c0.208,14.063 0.219,28.13 0.222,42.196c0.063,7.995 0.126,15.989 0.191,24.225c-4.235,27.744 -14.611,43.259 -31.881,65.108c-19.915,9.957 -36.623,8.297 -58.901,8.599c-4.583,0.07 -9.168,0.14 -13.891,0.212c-15.219,0.213 -30.437,0.365 -45.658,0.5c-5.218,0.046 -10.436,0.094 -15.812,0.142c-27.684,0.232 -55.368,0.406 -83.054,0.545c-22.787,0.126 -45.569,0.372 -68.354,0.729c-27.604,0.432 -55.201,0.647 -82.808,0.715c-10.455,0.06 -20.909,0.193 -31.362,0.403c-87.716,1.672 -151.842,-18.018 -219.139,-75.877c-12.562,-18.148 -12.562,-18.148 -23.123,-37.796c-3.558,-6.429 -7.117,-12.858 -10.783,-19.483c-32.639,-77.983 -21.091,-173.365 4.252,-251.432c8.311,-18.564 8.311,-18.564 29.655,-39.908c35.218,18.783 70.436,37.566 106.721,56.917c-3.521,12.62 -7.044,25.239 -10.672,38.242c-12.24,49.421 -18.993,93.322 -2.667,142.293c15.921,22.288 30.894,36.572 56.027,47.135c27.831,4.284 55.421,4.306 83.543,4.335c7.09,0.111 14.179,0.222 21.484,0.336c26.354,0.372 52.71,0.504 79.065,0.664c58.99,0.587 117.98,1.175 178.758,1.779l0,-377.079l-0.002,-0.003Z" style="fill:#31983a;fill-rule:nonzero;"/><path d="M61.133,1146.587c10.056,-0.075 10.056,-0.075 20.313,-0.152c11.012,0.026 11.012,0.026 22.246,0.053c11.611,-0.055 11.611,-0.055 23.458,-0.111c25.652,-0.099 51.303,-0.092 76.955,-0.075c17.784,-0.027 35.568,-0.058 53.352,-0.092c37.298,-0.053 74.595,-0.051 111.891,-0.014c43.127,0.043 86.252,-0.044 129.378,-0.196c41.479,-0.14 82.957,-0.162 124.438,-0.137c17.656,-0.003 35.312,-0.041 52.968,-0.113c24.65,-0.087 49.295,-0.039 73.945,0.043c7.341,-0.055 14.681,-0.109 22.246,-0.166c10.056,0.075 10.056,0.075 20.313,0.152c5.83,-0.002 11.657,-0.002 17.663,-0.003c18.682,3.318 24.976,9.072 36.355,24.01c2.834,16.898 2.834,16.898 2.667,35.573c0.082,9.245 0.082,9.245 0.167,18.677c-3.441,20.513 -7.952,25.601 -24.179,38.242c-15.142,2.665 -15.142,2.665 -32.993,2.662c-10.16,0.075 -10.16,0.075 -20.526,0.152c-11.128,-0.082 -11.128,-0.082 -22.48,-0.166c-7.822,0.026 -15.643,0.051 -23.702,0.079c-25.919,0.058 -51.832,-0.039 -77.751,-0.143c-17.96,-0.003 -35.921,0 -53.881,0.01c-37.663,0 -75.324,-0.072 -112.985,-0.203c-43.571,-0.15 -87.14,-0.176 -130.711,-0.131c-41.889,0.041 -83.778,0 -125.667,-0.08c-17.84,-0.027 -35.681,-0.036 -53.521,-0.024c-24.889,0.003 -49.776,-0.087 -74.665,-0.203c-7.433,0.017 -14.866,0.036 -22.524,0.053c-6.753,-0.051 -13.507,-0.101 -20.465,-0.152c-5.888,-0.015 -11.775,-0.029 -17.842,-0.044c-14.248,-1.81 -14.248,-1.81 -28.476,-16.041c-2.14,-19.565 -2.14,-19.565 -2.223,-42.688c-0.12,-7.631 -0.239,-15.262 -0.362,-23.123c0.854,-6.456 1.706,-12.912 2.585,-19.565c22.613,-15.074 28.135,-16.02 54.019,-16.085l-0.003,0.003Z" style="fill:#025485;fill-rule:nonzero;"/><path d="M267.524,861.129c32.04,3.61 54.581,16.008 82.431,31.627c7.93,4.364 7.93,4.364 16.02,8.819c10.626,5.9 21.223,11.85 31.789,17.854c9.332,5.298 18.697,10.539 28.111,15.689c11.253,6.161 22.367,12.573 33.468,19.003c6.173,3.55 12.344,7.098 18.704,10.756c12.868,12.812 12.868,12.812 15.952,33.906c-3.171,22.198 -7.079,31.924 -20.871,49.163c-3.302,4.236 -6.603,8.474 -10.004,12.841c-2.568,3.099 -5.136,6.2 -7.781,9.393c-41.525,-3.34 -69.759,-15.388 -105.387,-36.463c-4.938,-2.846 -9.878,-5.695 -14.966,-8.628c-39.654,-23.164 -77.641,-48.354 -114.433,-75.859c8.077,-82.378 8.077,-82.378 46.969,-88.1l0,-0.002Z" style="fill:#0a5888;fill-rule:nonzero;"/><path d="M779.977,0c32.923,4.083 54.929,18.416 82.68,35.879c10.698,6.579 21.399,13.157 32.1,19.732c7.723,4.798 7.723,4.798 15.602,9.692c18.829,11.408 38.279,21.556 57.685,31.939c27.102,16.437 27.102,16.437 34.239,40.909c-7.723,26.482 -16.353,43.289 -34.685,64.032c-24.416,7.223 -37.974,8.881 -61.992,-0.116c-9.608,-5.597 -9.608,-5.597 -19.411,-11.306c-7.085,-4.067 -14.169,-8.135 -21.469,-12.325c-7.286,-4.342 -14.574,-8.684 -22.08,-13.16c-10.971,-6.308 -10.971,-6.308 -22.164,-12.743c-68.397,-39.762 -68.397,-39.762 -94.783,-64.186c-0.526,-28.965 4.73,-45.651 19.121,-70.702c16.452,-14.675 16.452,-14.675 35.156,-17.647l-0,0.002Z" style="fill:#085584;fill-rule:nonzero;"/><path d="M4311.51,550.806c25.178,11.75 34.227,19.324 49.803,42.688c3.106,23.519 5.054,41.367 -7.476,62.282c-19.184,23.485 -31.792,35.887 -61.893,39.992c-24.93,-2.877 -38.775,-9.564 -57.252,-26.68c-15.619,-21.097 -18.018,-42.755 -15.675,-68.479c19.584,-45.043 44.963,-53.9 92.492,-49.803Z" style="fill:#0f5787;fill-rule:nonzero;"/><path d="M4411.115,707.33c20.786,13.052 38.652,27.501 49.803,49.803c2.922,32.87 -0.451,52.326 -21.344,78.261c-25.869,14.683 -48.852,18.518 -78.261,14.229c-18.305,-15.458 -31.944,-28.316 -42.688,-49.803c-1.805,-27.662 -2.336,-48.27 14.229,-71.148c26.033,-20.248 45.533,-26.687 78.261,-21.344l0,0.002Z" style="fill:#0e5786;fill-rule:nonzero;"/><path d="M4211.905,707.33c39.693,22.468 39.693,22.468 49.803,42.688c2.577,31.427 3.659,49.44 -10.228,77.817c-22.254,17.912 -37.931,22.092 -66.172,23.54c-21.091,-2.295 -36.278,-9.487 -51.359,-24.568c-15.559,-26.747 -14.652,-54.492 -7.421,-83.903c20.497,-31.372 48.916,-42.41 85.376,-35.573l0,-0.002Z" style="fill:#0d5686;fill-rule:nonzero;"/><path d="M2298.048,1539.75c19.992,12.76 32.083,21.477 42.688,42.688c0.871,32.231 -1.293,56.799 -21.788,82.264c-26.911,13.168 -48.431,17.292 -77.817,10.228c-25.922,-20.958 -41.201,-36.42 -44.911,-69.812c2.734,-27.877 11.42,-38.423 30.683,-58.252c22.78,-11.389 46.429,-10.667 71.148,-7.115l-0.002,0Z" style="fill:#31983b;fill-rule:nonzero;"/><path d="M1181.041,735.788c4.696,2.348 9.391,4.696 14.229,7.115c-28.174,28.174 -56.348,56.348 -85.376,85.376c0,-32.602 20.746,-48.511 42.688,-71.148c16.898,-13.785 16.898,-13.785 28.459,-21.344Z" style="fill:#cbdde8;fill-rule:nonzero;"/><path d="M725.7,1333.423l56.917,0c-2.348,9.391 -4.696,18.783 -7.115,28.459c-14.376,-4.282 -28.61,-9.057 -42.688,-14.229c-2.348,-4.696 -4.696,-9.391 -7.115,-14.229l0.002,-0.002Z" style="fill:#286795;fill-rule:nonzero;"/></g></svg>