<?xml version="1.0" encoding="UTF-8" standalone="no"?><!DOCTYPE svg PUBLIC "-//W3C//DTD SVG 1.1//EN" "http://www.w3.org/Graphics/SVG/1.1/DTD/svg11.dtd"><svg width="100%" height="100%" viewBox="0 0 3479 1035" version="1.1" xmlns="http://www.w3.org/2000/svg" xmlns:xlink="http://www.w3.org/1999/xlink" xml:space="preserve" xmlns:serif="http://www.serif.com/" style="fill-rule:evenodd;clip-rule:evenodd;stroke-linejoin:round;stroke-miterlimit:2;"><path d="M2917.794,86.984c20.833,4.403 38.896,17.149 56.966,27.954l12.712,7.406c8.118,4.735 16.219,9.5 24.3,14.299c9.33,5.493 18.737,10.774 28.223,15.991c11.849,7.096 11.849,7.096 16.016,15.43c4.268,29.266 -8.941,47.079 -25,70.833l7.178,2.148c21.832,6.852 39.842,15.376 59.489,27.018l13.753,5.648c15.469,6.536 29.134,15.053 42.757,24.821l7.476,5.35c19.998,14.8 37.943,31.261 55.545,48.817l7.423,7.403c31.379,32.206 31.379,32.206 31.379,53.795l-6.885,2.62c-39.686,16.214 -69.178,38.038 -88.949,76.546l-4.541,8.105c-7.057,15.931 -6.809,33.032 -7.959,50.228l-1.123,9.001c-2.203,27.409 8.855,49.117 20.247,73.356c10.231,23.466 10.854,36.061 2.246,60.368l-5.168,14.95l-5.526,15.503c-3.576,10.154 -7.13,20.315 -10.661,30.485l-4.841,13.616c-4.295,12.487 -4.295,12.487 -3.509,28.555c11.368,5.389 22.74,10.77 34.115,16.146l9.709,4.606c15.786,7.453 31.517,14.698 47.843,20.915l0,4.167c-57.454,2.794 -111.932,1.527 -168.229,-11.198l-13.693,-3.078c-31.076,-7.566 -59.677,-18.716 -88.911,-31.557c-6.933,-2.805 -13.874,-5.592 -20.833,-8.333l0,-8.333l12.207,-0.944c42.586,-4.301 71.892,-13.213 103.678,-43.587c36.986,-56.007 45.016,-124.687 32.18,-190.369c-11.589,-40.356 -34.39,-63.246 -68.378,-85.413c-11.886,-4.279 -19.901,-5.461 -32.292,-6.25c-26.407,-1.811 -48.645,-12.378 -72.396,-23.438l-3.011,8.464c-6.642,15.436 -15.044,29.313 -23.812,43.62l-4.989,8.219c-3.206,5.281 -6.425,10.555 -9.658,15.82c-3.8,6.278 -7.426,12.661 -11.021,19.059c-5.843,8.984 -5.843,8.984 -18.343,17.318c-23.565,0 -38.373,-8.558 -57.943,-21.061c-10.141,-6.377 -20.311,-12.398 -30.729,-18.294l-9.548,-5.445c-6.287,-3.578 -12.59,-7.129 -18.909,-10.651c-17.101,-9.844 -31.336,-18.5 -41.205,-36.215c-0.25,-22.576 11.427,-39.464 22.917,-58.073l5.7,-9.453c3.869,-6.41 7.755,-12.811 11.657,-19.201c6.436,-10.54 12.792,-21.126 19.137,-31.721c2.977,-4.971 5.96,-9.938 8.948,-14.903c11.343,-18.855 22.556,-37.784 33.731,-56.738c9.249,-15.684 18.521,-31.355 27.794,-47.025c6.758,-11.432 13.498,-22.875 20.234,-34.32c7.056,-11.967 14.15,-23.91 21.237,-35.858l8.075,-13.759l7.583,-12.738l6.691,-11.324c10.341,-14.869 20.949,-19.847 38.914,-19.299Zm88.216,193.579c-34.279,-4.728 -55.52,11.63 -70.833,41.667c-3.474,27.792 5.409,43.645 20.573,66.146c19.521,13.545 39.671,11.871 62.76,8.854c18.795,-7.144 28.93,-19.615 37.5,-37.5c3.92,-19.3 1.848,-33.418 -6.25,-51.302c-13.117,-14.101 -25.532,-21.78 -43.75,-27.865Zm-95.833,-133.333c-10.947,16.181 -21.468,32.551 -31.676,49.208l-5.563,9.126c-17.98,29.442 -35.626,59.072 -53.125,88.802c-10.504,17.941 -20.869,35.965 -32.005,53.524l-5.284,8.13c-3.098,4.803 -6.206,9.6 -9.326,14.388l-8.04,11.995c-5.892,12.612 -5.012,18.453 -0.814,31.494l9.245,-0.342c13.931,-4.598 18.004,-10.941 25.479,-23.231l4.859,-8.458c3.656,-6.106 7.307,-12.215 10.954,-18.327c6.112,-10.463 12.228,-20.921 18.422,-31.335c11.434,-19.146 22.809,-38.324 34.084,-57.564c6.785,-11.592 13.583,-23.174 20.437,-34.725c4.377,-7.364 8.741,-14.735 13.093,-22.114l6.135,-10.414c10.919,-18.256 21.732,-34.368 23.958,-55.99l-20.833,-4.167Z" style="fill:#065585;"/><path d="M2639.344,780.563c30.303,-0.96 60.602,-1.611 90.917,-2.06c10.285,-0.187 20.569,-0.442 30.851,-0.769c64.974,-2.013 109.733,-0.43 161.565,40.329c26.851,15.389 53.582,25.208 83.333,33.333c4.42,1.375 8.841,2.75 13.395,4.167c58.065,17.766 115.691,22.068 175.928,23.438c5.938,0.16 11.876,0.322 17.814,0.488c14.287,0.393 28.574,0.745 42.863,1.074c-13.183,13.377 -25.949,25.242 -41.406,35.938c-3.389,2.374 -6.778,4.748 -10.27,7.194c-11.586,7.352 -23.521,13.312 -35.824,19.368c3.991,0.017 7.981,0.034 12.093,0.052c14.943,0.091 29.881,0.318 44.822,0.584c6.441,0.096 12.882,0.156 19.324,0.179c66.225,0.278 66.225,0.278 94.594,24.185c19.476,20.775 20.833,38.168 20.833,66.667l-841.667,0c0,-29.572 2.374,-47.733 23.047,-69.092c15.914,-13.535 25.734,-18.888 46.259,-19.264c4.004,-0.083 8.007,-0.166 12.132,-0.252c4.332,-0.07 8.663,-0.139 13.127,-0.211c4.427,-0.087 8.855,-0.173 13.416,-0.262c14.18,-0.273 28.36,-0.518 42.541,-0.763c9.597,-0.18 19.195,-0.362 28.792,-0.545c23.562,-0.447 47.124,-0.871 70.687,-1.278c-2.266,-1.099 -4.532,-2.198 -6.866,-3.33c-2.984,-1.466 -5.969,-2.932 -9.044,-4.442c-2.953,-1.443 -5.907,-2.885 -8.949,-4.372c-49.193,-26.258 -82.51,-78.556 -101.834,-129.279c-2.474,-8.577 -2.474,-8.577 -2.474,-21.077Z" style="fill:#1b9531;fill-rule:nonzero;"/><path d="M2039.344,384.73l87.5,0l0,162.5l41.667,-20.833c32.837,-10.946 70.625,-8.416 101.823,5.99c38.231,21.971 61.141,51.778 73.177,94.01c2.317,17.259 2.586,34.166 2.344,51.562l-0.129,13.939c-1.212,46.412 -11.473,80.793 -44.402,114.999c-48.421,43.377 -104.335,43.683 -166.146,40.332c-32.873,-2.594 -63.808,-8.66 -95.833,-16.667l0,-445.833Zm179.948,209.896c-30.824,-12.435 -59.805,-6.915 -86.2,12.515c-9.568,10.347 -9.568,10.347 -9.552,33.257l0.456,10.169c0.129,10.857 0.293,21.697 0.648,32.549c0.253,7.536 0.452,15.073 0.598,22.611c0.351,22.176 0.88,44.336 1.602,66.503c11.403,6.284 17.354,8.38 30.762,9.294l15.592,-0.179c9.552,-0.05 19.108,-0.267 28.646,-0.781c19.162,-9.581 36.244,-24.807 47.656,-42.969c13.567,-30.613 11.477,-71.71 2.979,-103.63c-7.785,-17.761 -16.238,-29.611 -33.187,-39.339Z" style="fill:#055484;"/><path d="M372.677,405.563c-1.288,9.464 -2.593,18.925 -3.906,28.385c-0.725,5.269 -1.45,10.538 -2.197,15.967c-2.23,13.981 -2.23,13.981 -6.396,26.481c-17.315,-1.889 -33.903,-4.155 -50.798,-8.398c-19.987,-4.507 -39.172,-5.706 -59.619,-5.664c-5.206,0.01 -5.206,0.01 -10.517,0.02c-25.38,0.508 -45.063,4.02 -66.566,18.209c-4.383,2.492 -8.766,4.984 -13.281,7.552c-30.077,23.393 -42.171,47.999 -53.385,84.115c-1.375,4.125 -2.75,8.25 -4.167,12.5c-4.783,54.528 4.956,102.912 40.967,146.077c39.963,35.787 86.306,39.509 137.134,37.897c16.72,-1.14 32.286,-5.104 48.25,-10c13.146,-3.704 26.795,-5.376 40.316,-7.308c2.062,37.125 2.062,37.125 4.167,75c-73.867,25.163 -163.959,38.172 -237.5,4.167c-3.056,-1.251 -6.112,-2.503 -9.261,-3.792c-54.102,-24.08 -89.771,-67.223 -111.572,-121.208c-10.632,-31.37 -14.673,-60.442 -14.323,-93.49c0.032,-4.196 0.063,-8.392 0.096,-12.715c1.092,-49.266 15.494,-86.728 43.394,-127.129c1.735,-2.557 3.47,-5.113 5.257,-7.747c28.852,-37.777 74.806,-62.976 119.743,-75.586c2.82,-0.929 5.64,-1.858 8.545,-2.816c62.313,-17.786 137.875,-6.836 195.622,19.482Z" style="fill:#39993d;fill-rule:nonzero;"/><path d="M1035.177,388.897l83.333,0c2.062,84.562 2.062,84.562 4.167,170.833c11,-8.25 22,-16.5 33.333,-25c33.236,-17.45 72.719,-19.346 108.691,-8.691c27.72,12.903 43.081,28.349 56.353,56.014c8.876,24.557 7.335,49.676 7.01,75.464c-0.018,5.317 -0.035,10.634 -0.054,16.112c-0.058,14.029 -0.17,28.056 -0.309,42.085c-0.129,14.357 -0.185,28.715 -0.248,43.073c-0.137,28.093 -0.353,56.185 -0.61,84.277l-87.5,0c-0.061,-6.581 -0.122,-13.161 -0.184,-19.941c-0.242,-24.422 -0.563,-48.843 -0.909,-73.265c-0.139,-10.568 -0.255,-21.137 -0.35,-31.706c-0.14,-15.195 -0.358,-30.387 -0.591,-45.58c-0.027,-4.723 -0.053,-9.446 -0.081,-14.312c-0.082,-4.42 -0.165,-8.839 -0.25,-13.393c-0.069,-5.815 -0.069,-5.815 -0.14,-11.748c-1.995,-13.076 -6.48,-21.037 -14.161,-31.722c-16.726,-8.363 -36.033,-6.767 -54.167,-4.167c-17.64,8.431 -32.054,19.554 -45.833,33.333c-1.378,9.258 -1.378,9.258 -1.329,20.07c-0.083,4.17 -0.166,8.341 -0.251,12.637c-0.048,4.514 -0.096,9.028 -0.146,13.679c-0.081,4.612 -0.161,9.225 -0.245,13.977c-0.25,14.774 -0.443,29.549 -0.634,44.324c-0.159,9.999 -0.322,19.998 -0.488,29.997c-0.401,24.549 -0.751,49.099 -1.074,73.649l-83.333,0l0,-450Z" style="fill:#34973a;fill-rule:nonzero;"/><path d="M644.552,541.24c23.409,20.749 36.381,40.725 38.531,72.598c0.856,24.932 0.612,49.858 0.271,74.798c-0.153,12.967 -0.269,25.929 -0.255,38.897c0.007,8.032 -0.081,16.065 -0.276,24.095c0.003,10.074 0.109,19.113 2.354,28.935c9.871,8.408 9.871,8.408 20.833,12.5c2.181,11.1 2.181,11.1 1.562,23.438l-0.423,12.402c-1.139,9.993 -1.139,9.993 -5.306,14.16c-10.833,0.754 -21.449,1.159 -32.292,1.302l-9.049,0.366c-15.276,0.183 -24.437,-1.136 -37.63,-9.041c-8.397,-9.15 -11.392,-13.796 -12.695,-25.96l-7.031,5.029c-43.141,29.951 -78.21,37.212 -130.469,32.471c-26.223,-6.615 -43.557,-23.718 -58.333,-45.833c-12.123,-24.796 -12.282,-53.506 -4.427,-79.688c28.755,-40.083 62.004,-53.856 109.229,-63.883c25.837,-4.097 52.464,-2.62 78.532,-2.262c-0.138,-7.295 -0.428,-14.587 -0.781,-21.875l-0.439,-12.305c-2.16,-12.209 -2.16,-12.209 -11.328,-21.354c-16.634,-9.306 -29.631,-9.487 -48.389,-9.049l-10.06,0.098c-24.014,0.701 -44.176,5.068 -66.226,15.007c-8.61,3.646 -8.61,3.646 -21.11,3.646l-8.333,-58.333c57.859,-43.394 150.623,-40.405 213.542,-10.156Zm-46.875,160.156c-39.13,-1.295 -76.918,-2.851 -104.167,29.167c-3.341,13.244 -3.073,24.222 0,37.5c7.552,12.76 7.552,12.76 20.833,20.833c29.665,4.125 49.031,0.238 73.958,-15.625c12.64,-18.258 12.64,-18.258 9.375,-71.875Z" style="fill:#38983e;"/><path d="M1941.167,548.272c28.608,30.701 32.035,63.787 32.829,104.118l0.262,11.121c0.272,11.674 0.518,23.348 0.763,35.022c0.18,7.935 0.362,15.869 0.545,23.804c0.445,19.409 0.867,38.818 1.278,58.228l16.667,8.333c0.112,8.246 0.193,16.493 0.26,24.74l0.146,13.916c-0.407,11.344 -0.407,11.344 -4.574,15.511c-10.134,0.643 -20.068,0.965 -30.208,1.042l-8.447,0.26c-18.587,0.146 -30.037,-2.277 -44.678,-13.802c-7.552,-9.115 -7.552,-9.115 -12.5,-16.667l-7.178,5.176c-41.513,28.969 -79.72,33.164 -129.541,25.814c-28.102,-12.673 -47.457,-31.52 -59.115,-60.156c-4.01,-26.796 -5.641,-54.373 10.417,-77.344c28.857,-31.334 60.969,-40.107 102.083,-47.656l12.37,-2.393c13.922,-1.956 27.224,-2.178 41.276,-2.035l14.551,0.114l10.97,0.146c-0.434,-27.973 -0.434,-27.973 -12.24,-52.344c-24.178,-16.851 -59.196,-12.836 -87.76,-10.156c-14.06,3.411 -26.923,7.642 -40.332,13.021c-9.668,3.646 -9.668,3.646 -22.168,3.646l-8.333,-58.333c64.639,-36.049 159.314,-49.149 222.656,-3.125Zm-51.823,153.125c-36.94,-1.52 -72.631,-4.747 -100,24.219c-9.155,14.591 -10.632,21.426 -8.333,38.281c6.286,12.572 13.04,17.525 25,25c16.806,2.557 32.28,1.335 48.698,-2.865l9.635,-5.469c13.802,-7.292 13.802,-7.292 20.166,-12.614c8.625,-14.666 8.625,-14.666 4.834,-66.553Z" style="fill:#055686;"/><path d="M3306.01,413.897l62.5,0c2.062,20.625 2.062,20.625 4.167,41.667c4.222,0.806 8.443,1.611 12.793,2.441c5.632,1.095 11.263,2.191 16.895,3.288c4.157,0.79 4.157,0.79 8.398,1.595c16.992,3.332 33.116,7.67 49.414,13.509c-2.705,25.02 -11.908,47.503 -20.833,70.833c-2.369,-0.806 -4.737,-1.611 -7.178,-2.441c-6.743,-2.274 -13.499,-4.512 -20.264,-6.722c-7.836,-2.599 -15.604,-5.402 -23.34,-8.285c-31.093,-6.626 -65.817,-8.952 -95.052,4.948c-0.582,14.056 -0.582,14.056 4.167,29.167c23.05,16.327 51.098,22.417 78.101,29.844c28.268,7.83 53.236,16.444 75.285,36.562c4.681,4.181 4.681,4.181 9.456,8.447c19.823,21.035 17.867,41.321 17.318,69.255c-1.803,25.835 -9.259,40.393 -27.816,58.757c-22.44,18.52 -52.253,30.469 -81.51,30.469l0,50l-62.5,0l0,-50c-4.727,0.172 -9.453,0.344 -14.323,0.521c-33.682,-0.119 -60.5,-9.515 -89.844,-25.521c2.183,-24.45 7.338,-43.953 16.667,-66.667c15.225,2.601 28.392,7.054 42.708,12.76c22.251,7.583 42.341,9.774 65.625,9.896c4.562,0.061 4.562,0.061 9.216,0.123c13.26,-0.211 22.735,-1.179 34.42,-7.659c7.302,-6.545 7.302,-6.545 8.187,-17.204c-2.174,-12.425 -4.813,-14.949 -14.323,-22.917c-19.865,-10.242 -40.539,-16.913 -62.5,-20.833c-40.655,-7.351 -70.654,-21.717 -97.396,-53.385c-13.034,-25.073 -10.434,-56.917 -6.771,-84.115c6.084,-14.084 13.759,-23.058 25,-33.333c3.523,-3.867 7.047,-7.734 10.677,-11.719c18.932,-15.105 45.303,-17.383 68.49,-21.615c1.375,-13.75 2.75,-27.5 4.167,-41.667Z" style="fill:#33983b;fill-rule:nonzero;"/><path d="M1393.51,388.897l91.667,0l0,379.167l183.333,0l0,75l-275,0l0,-454.167Z" style="fill:#075685;fill-rule:nonzero;"/><path d="M865.385,520.407c5.124,0.025 5.124,0.025 10.351,0.05c32.982,0.771 63.064,7.751 92.774,22.606c-1.375,20.625 -2.75,41.25 -4.167,62.5c-6.872,-1.805 -6.872,-1.805 -13.883,-3.646c-50.797,-14.077 -50.797,-14.077 -102.783,-13.021c-9.478,5.338 -9.478,5.338 -16.667,12.5c-3.126,10.235 -3.126,10.235 0,20.833c14.534,13.795 27.113,19.515 46.354,24.479c40.759,11.784 76.954,28.68 101.953,64.095c10.681,20.829 8.803,42.811 5.859,65.592c-9.65,25.257 -26.913,43.093 -51.367,54.541c-63.451,26.691 -130.358,20.806 -194.466,-0.374c-4.721,-17.103 -3.264,-28.165 1.823,-45.052c1.198,-4.066 2.396,-8.132 3.63,-12.321c0.951,-3.067 1.901,-6.134 2.881,-9.294c16.511,2.505 32.142,6.061 48.177,10.677c27.7,7.02 64.689,15.339 90.723,0.407c8.07,-6.794 8.07,-6.794 9.538,-19.157c-1.354,-13.59 -1.354,-13.59 -13.053,-21.11c-15.684,-9.767 -32.455,-15.216 -49.967,-20.817c-37.077,-11.859 -66.089,-28.042 -88.802,-60.938c-8.034,-22.835 -10.152,-46.411 -1.286,-69.385c17.511,-30.11 40.717,-48.45 73.637,-58.827c16.313,-4.026 32.001,-4.55 48.743,-4.341Z" style="fill:#38993e;fill-rule:nonzero;"/><path d="M2550.118,670.615c3.92,-0.041 7.839,-0.083 11.878,-0.125c4.293,0.019 8.585,0.038 13.008,0.057c6.79,-0.043 6.79,-0.043 13.717,-0.087c15.003,-0.076 30.004,-0.06 45.008,-0.036c10.405,-0.019 20.81,-0.041 31.215,-0.066c21.825,-0.037 43.65,-0.028 65.476,0.014c25.224,0.048 50.446,-0.011 75.669,-0.122c24.27,-0.103 48.539,-0.114 72.809,-0.087c10.325,0.001 20.65,-0.025 30.975,-0.076c14.426,-0.062 28.847,-0.018 43.273,0.054c4.284,-0.04 8.568,-0.081 12.982,-0.122c28.884,0.301 28.884,0.301 42.537,10.09c6.567,10.164 7.807,15.773 7.502,27.8c-0.005,3.185 -0.011,6.37 -0.016,9.652c-2.275,11.13 -5.44,14.349 -14.307,21.338c-8.933,1.573 -8.933,1.573 -19.48,1.587c-4.002,0.035 -8.004,0.07 -12.127,0.107c-4.384,-0.025 -8.767,-0.051 -13.284,-0.077c-4.621,0.022 -9.243,0.044 -14.004,0.066c-15.314,0.055 -30.626,0.019 -45.939,-0.024c-10.612,0.008 -21.224,0.021 -31.835,0.036c-22.253,0.018 -44.505,-0.007 -66.758,-0.067c-25.744,-0.068 -51.488,-0.046 -77.232,0.023c-24.75,0.063 -49.5,0.057 -74.25,0.02c-10.541,-0.008 -21.082,0.002 -31.623,0.031c-14.706,0.032 -29.41,-0.016 -44.116,-0.086c-6.588,0.038 -6.588,0.038 -13.309,0.077c-3.99,-0.035 -7.98,-0.07 -12.091,-0.107c-3.479,-0.005 -6.958,-0.009 -10.542,-0.014c-4.162,-0.779 -4.162,-0.779 -8.409,-1.573c-8.94,-13.41 -9.566,-17.783 -9.635,-33.333c-0.07,-3.609 -0.14,-7.219 -0.212,-10.938c3.026,-19.785 14.511,-23.956 33.121,-24.011Z" style="fill:#055586;fill-rule:nonzero;"/><path d="M2664.344,505.563c29.099,1.418 50.501,14.276 75.521,28.385c4.066,2.226 8.132,4.453 12.321,6.746c40.687,22.564 40.687,22.564 53.825,35.701c0.661,18.182 -2.516,26.836 -13.021,41.667c-11.979,8.333 -11.979,8.333 -25.781,8.854c-15.448,-4.713 -26.104,-10.513 -39.355,-19.434c-10.632,-6.927 -21.587,-12.872 -32.78,-18.848c-7.467,-4.076 -14.933,-8.155 -22.396,-12.24c-2.75,-1.456 -5.5,-2.911 -8.333,-4.411c-11.616,-6.729 -16.348,-11.5 -21.615,-23.975c1.092,-18.563 9.8,-28.63 21.615,-42.448Z" style="fill:#0b5988;fill-rule:nonzero;"/><path d="M2971.919,0c14.683,1.547 22.496,5.14 35.019,12.806c3.961,2.387 7.922,4.775 12.004,7.235c4.069,2.527 8.137,5.054 12.329,7.658c4.085,2.479 8.169,4.958 12.378,7.511c7.619,4.629 15.225,9.281 22.812,13.962c7.25,4.463 14.542,8.857 21.865,13.198c9.352,5.694 9.352,5.694 13.518,9.86c3.294,18.667 -4.032,29.327 -13.835,44.352c-10.644,8.59 -18.604,6.758 -31.999,5.648c-11.753,-5.156 -11.753,-5.156 -23.73,-12.321c-4.356,-2.575 -8.712,-5.151 -13.2,-7.804c-4.485,-2.726 -8.97,-5.452 -13.59,-8.26c-4.517,-2.677 -9.034,-5.355 -13.688,-8.114c-18.079,-10.782 -35.818,-21.406 -52.458,-34.334c2.125,-22.311 7.065,-48.362 32.575,-51.397Z" style="fill:#0a5685;fill-rule:nonzero;"/><path d="M3185.177,930.563c2.75,1.375 5.5,2.75 8.333,4.167c-1.375,1.375 -2.75,2.75 -4.167,4.167c55.688,2.062 55.688,2.062 112.5,4.167l0,4.167l-137.5,0c12.5,-12.5 12.5,-12.5 20.833,-16.667Z" style="fill:#b2deb9;fill-rule:nonzero;"/><path d="M3222.677,884.73l25,0l0,8.333c-8.173,5.789 -16.507,11.359 -25,16.667l0,-25Z" style="fill:#2c9f44;fill-rule:nonzero;"/><path d="M439.344,543.063l8.333,0c-2.75,15.125 -5.5,30.25 -8.333,45.833l-4.167,0c-0.924,-6.068 -1.779,-12.147 -2.604,-18.229c-0.483,-3.384 -0.967,-6.768 -1.465,-10.254c-0.032,-2.976 -0.064,-5.951 -0.098,-9.017c2.75,-2.75 5.5,-5.5 8.333,-8.333Z" style="fill:#4fa453;fill-rule:nonzero;"/></svg>