<?xml version="1.0" encoding="UTF-8" standalone="no"?><!DOCTYPE svg PUBLIC "-//W3C//DTD SVG 1.1//EN" "http://www.w3.org/Graphics/SVG/1.1/DTD/svg11.dtd"><svg width="100%" height="100%" viewBox="0 0 13883 4313" version="1.1" xmlns="http://www.w3.org/2000/svg" xmlns:xlink="http://www.w3.org/1999/xlink" xml:space="preserve" xmlns:serif="http://www.serif.com/" style="fill-rule:evenodd;clip-rule:evenodd;stroke-linejoin:round;stroke-miterlimit:2;"><path d="M1684.033,354.483c44.304,19.342 44.304,19.342 90.942,46.321c17.108,9.792 34.217,19.583 51.846,29.671c17.692,10.375 35.383,20.746 53.608,31.433l53,30.417c269.537,155.4 269.537,155.4 323.521,209.383c9.567,84.438 -9.708,133.771 -52.083,206.163c-9.667,16.783 -19.337,33.571 -29.296,50.862c-7.521,12.579 -15.037,25.154 -22.787,38.112l61.85,17.362c309.3,103.75 659.104,334.067 840.929,607.638c11.867,47.471 11.867,47.471 17.363,86.804c-13.829,7.767 -27.663,15.533 -41.912,23.533c-193.796,110.571 -313.646,205.638 -398.629,418.092c-33.233,189.429 -5.112,364.146 98.742,528.429c29.296,54.254 29.296,54.254 29.296,103.083c-19.258,61.379 -42.746,119.95 -67.479,179.308c-28.521,73.254 -50.417,148.225 -72.633,223.592c-14.775,47.371 -31.746,92.783 -50.863,138.55c19.875,5.908 19.875,5.908 40.146,11.938c71.175,25.333 138.383,56.342 206.908,88.025c61.429,27.55 123.613,50.937 186.971,73.65l0,17.363c-408.15,14.463 -879.921,-12.808 -1232.637,-243.054l0,-17.362c14.279,-1.5 28.558,-3 43.267,-4.542c189.629,-23.867 327.329,-69.192 452,-218.371c131.933,-193.529 153.342,-441.621 121.596,-668.604c-29.946,-152.225 -81.908,-297.233 -209.963,-393.2c-87.85,-51.112 -166.033,-74.754 -265.842,-93.317c-95.233,-19.508 -165.492,-42.6 -245.225,-97.658c-4.667,12.517 -9.333,25.033 -14.142,37.925c-35.254,83.725 -85.537,158.529 -133.429,235.513c-10.317,16.85 -20.633,33.704 -31.262,51.067l-30.042,48.488c-9.054,14.629 -18.104,29.262 -27.433,44.333c-24.108,34.063 -24.108,34.063 -58.829,51.421c-111.879,12.492 -172.85,-21.288 -263.671,-79.208c-25.946,-15.967 -51.896,-31.929 -77.854,-47.879c-12.679,-7.904 -25.354,-15.812 -38.417,-23.958c-67.638,-41.563 -137.204,-79.75 -206.467,-118.525c-38.588,-25.567 -38.588,-25.567 -73.308,-77.65c-14.7,-111.971 21.967,-171.975 81.379,-261.5c17.621,-27.65 35.204,-55.317 52.763,-83.008c9.292,-14.525 18.587,-29.05 28.162,-44.013c49.25,-78.171 95.842,-157.887 142.6,-237.562c9.546,-16.2 19.096,-32.404 28.933,-49.096c50.042,-84.921 99.938,-169.925 149.817,-254.942c27.846,-47.408 55.788,-94.767 83.737,-142.112c16.438,-27.921 32.821,-55.879 49.167,-83.854c27.646,-47.292 55.467,-94.479 83.312,-141.654c8.537,-14.696 17.079,-29.392 25.875,-44.529c127.896,-215.588 127.896,-215.588 246.475,-202.867l0,-0.008Zm429.687,846.354l-0.004,-0.004c-118.25,-64.592 -223.242,-39.008 -321.179,45.575c-49,60.763 -49,60.763 -45.504,224.271c10.15,74.025 53.992,121.696 111.017,168.188c70.775,36.508 148.35,28.287 225.287,17.7c80.283,-30.746 119.158,-79.321 156.25,-156.25c11.921,-83.083 19.246,-160.954 -27.125,-233.292c-14.387,-9.221 -28.35,-18.175 -42.317,-27.125c-19.183,-13.279 -37.804,-26.171 -56.425,-39.062Zm-481.771,-585.938l0,-0.004c-25.838,43.517 -52.008,86.683 -79.292,129.312c-66.121,102.2 -128.437,206.008 -188.821,311.688c-86.533,152.1 -173.513,303.158 -269,449.842c-45.692,67.692 -80.9,117.871 -70.529,202.908c29.513,5.904 58.158,11.633 86.804,17.362c17.254,-36.304 35.35,-70.413 57.2,-104.188c56.454,-82.15 109.108,-165.788 159.663,-251.679c18.733,-32.062 37.487,-64.117 56.254,-96.163c10.188,-17.375 20.071,-34.237 29.958,-51.1c30.921,-52.754 62.025,-105.362 93.612,-157.717l32.121,-52.921c20.542,-34.071 41.092,-68.137 61.646,-102.2c55.654,-90.596 110.729,-168.713 117.188,-277.779c-43.838,-8.771 -43.838,-8.771 -86.804,-17.362Z" style="fill:#055584;"/><path d="M503.475,3253.788c129.375,-3.55 258.733,-5.967 388.146,-7.629c43.933,-0.696 87.863,-1.637 131.783,-2.85c454.983,-12.204 454.983,-12.204 643.263,149.367c150.888,87.35 318.354,145.85 486.113,190.971c19.492,5.954 38.983,11.904 59.067,18.037c278.929,78.054 573.654,65.988 861.071,68.767c-54.929,55.737 -108.121,105.175 -172.525,149.742c-14.121,9.892 -28.242,19.783 -42.792,29.975c-48.275,30.633 -98.004,55.467 -149.267,80.7c16.629,0.162 33.254,0.325 50.387,0.492c62.263,0.696 124.508,1.842 186.758,3.112c26.838,0.487 53.675,0.858 80.517,1.1c312.342,3.025 312.342,3.025 426.696,113.567c46.033,89.504 54.254,162.908 54.254,263.671l-3506.946,0c0,-127.812 15.838,-178.075 86.804,-277.779c68.446,-63.671 111.246,-88.713 203.562,-90.371c17.029,-0.346 34.058,-0.692 51.604,-1.05c27.642,-0.433 27.642,-0.433 55.846,-0.879c18.833,-0.363 37.667,-0.721 57.071,-1.092c60.321,-1.138 120.646,-2.158 180.967,-3.179c40.825,-0.75 81.65,-1.508 122.479,-2.271c100.233,-1.862 200.467,-3.629 300.7,-5.325c-9.483,-4.617 -18.971,-9.233 -28.742,-13.988c-12.471,-6.137 -24.938,-12.271 -37.788,-18.596c-12.35,-6.05 -24.7,-12.096 -37.421,-18.329c-222.704,-118.15 -363.583,-365.058 -451.604,-591.454l0,-34.721l-0.004,0.012Z" style="fill:#1b9531;fill-rule:nonzero;"/><path d="M11545.142,1726.013l312.5,0l0,1475.696l1701.388,0c10.996,-279.512 10.996,-279.512 -52.083,-364.583c-42.812,-7.929 -42.812,-7.929 -93.404,-6.679c-19.529,-0.175 -39.058,-0.35 -59.179,-0.533c-21.196,0.054 -42.387,0.104 -64.225,0.158c-21.708,-0.188 -43.421,-0.375 -65.788,-0.571c-69.646,-0.596 -139.288,-0.875 -208.938,-1.058c-91.446,-0.238 -182.879,-0.838 -274.321,-1.629c-21.087,0.054 -42.179,0.104 -63.904,0.158c-19.692,-0.175 -39.388,-0.35 -59.679,-0.533c-17.283,-0.038 -34.567,-0.071 -52.371,-0.108c-77.562,-10.671 -122.079,-44.763 -173.642,-102.058c-42.246,-60.354 -57.038,-115.996 -55.812,-189.821c41.083,-226.833 212.871,-415.404 394.354,-543.688c264.75,-177.679 545.992,-262.004 863.717,-247.396l0,329.863c-41.538,1.433 -83.071,2.867 -125.867,4.342c-256.417,13.796 -513.812,115.654 -690.104,308.158c-17.65,28.763 -35.042,57.679 -52.083,86.804c9.542,0.1 19.083,0.204 28.917,0.308c100.288,1.121 200.562,2.588 300.842,4.246c37.308,0.575 74.621,1.062 111.933,1.458c488.312,5.333 488.312,5.333 618.421,103.579c75.513,104.742 93.829,183.825 93.858,309.854c0.133,15.062 0.262,30.121 0.4,45.637c0.188,31.704 0.237,63.413 0.158,95.121c-0.017,48.438 0.708,96.829 1.475,145.258c0.092,30.892 0.137,61.779 0.137,92.671c0.283,14.417 0.571,28.829 0.862,43.683c-0.163,13.562 -0.325,27.121 -0.488,41.092c0.038,11.829 0.071,23.658 0.108,35.846c-18.729,62.662 -44.212,84.875 -97.596,122.908c-68.617,13.075 -136.417,12.033 -206.096,11.508c-20.871,0.179 -41.742,0.358 -63.246,0.546c-57.108,0.387 -114.2,0.387 -171.312,0.179c-47.721,-0.125 -95.433,0.025 -143.154,0.171c-112.583,0.346 -225.158,0.25 -337.742,-0.133c-116.071,-0.387 -232.121,-0.083 -348.188,0.575c-99.746,0.542 -199.487,0.679 -299.237,0.487c-59.533,-0.113 -119.062,-0.079 -178.596,0.338c-66.383,0.346 -132.733,0.029 -199.117,-0.462c-29.521,0.358 -29.521,0.358 -59.642,0.721c-148.408,-2.2 -148.408,-2.2 -202.121,-56.433c-40.275,-79.754 -42.779,-139.971 -40.992,-228.075c-0.013,-16.442 -0.025,-32.879 -0.038,-49.821c0.058,-54.117 0.733,-108.208 1.417,-162.321c0.163,-37.608 0.288,-75.217 0.371,-112.821c0.329,-98.812 1.183,-197.617 2.146,-296.429c0.888,-100.896 1.283,-201.792 1.721,-302.692c0.929,-197.85 2.458,-395.688 4.237,-593.533l0,0.013Z" style="fill:#095384;fill-rule:nonzero;"/><path d="M9652.775,2281.567l329.871,0l0,920.137l329.862,0l0,-902.779l329.863,0l0,902.779l329.862,0l0,-902.779l312.5,0c1.962,145.637 3.554,291.262 4.496,436.904c0.454,67.633 1.067,135.254 2.05,202.883c0.946,65.292 1.462,130.571 1.688,195.867c0.158,24.883 0.471,49.771 0.942,74.65c0.633,34.904 0.667,69.812 0.675,104.721c0.192,19.854 0.387,39.708 0.583,60.167c-13.788,70.367 -41.712,96.162 -97.246,140.088c-48.408,7.637 -85.775,10.258 -133.804,8.479c-18.892,-0.183 -18.892,-0.183 -38.163,-0.371c-39.992,-0.483 -79.942,-1.571 -119.917,-2.679c-27.204,-0.438 -54.413,-0.833 -81.617,-1.188c-66.487,-0.954 -132.946,-2.45 -199.417,-4.238c-5.729,-17.188 -11.458,-34.375 -17.362,-52.083c-8.733,8.488 -17.467,16.979 -26.467,25.725c-57.921,35.525 -109.288,32.9 -175.088,31.446c-12.617,-0.075 -25.237,-0.146 -38.238,-0.225c-40.158,-0.292 -80.3,-0.946 -120.454,-1.608c-27.283,-0.263 -54.571,-0.5 -81.854,-0.713c-66.758,-0.575 -133.508,-1.471 -200.263,-2.542c0.342,16.338 0.683,32.671 1.033,49.5c-2.083,110.029 -82.188,220.537 -157.283,297.721c-189.608,149.771 -372.025,176.487 -607.638,156.25c-153.558,-25.879 -297.863,-120.371 -392.7,-243.129c-80.121,-115.821 -103.567,-222.942 -100.196,-361.863c0.1,-15.579 0.196,-31.158 0.296,-47.208c0.383,-49.175 1.254,-98.329 2.142,-147.496c0.35,-33.579 0.667,-67.162 0.95,-100.742c0.7,-81.812 2.062,-163.579 3.392,-245.396l312.5,0c0.446,43.708 0.896,87.413 1.358,132.446c0.667,42.637 1.45,85.271 2.246,127.908c0.488,29.483 0.858,58.967 1.1,88.45c0.375,42.55 1.187,85.071 2.075,127.608c0.021,13.046 0.042,26.087 0.067,39.525c2.608,95.217 26.417,151.6 79.958,230.588c73.592,62.875 161.467,79.917 256.279,75.004c90.5,-12.95 156.433,-35.237 220.067,-102.133c44.871,-69.996 47.017,-110.413 48.054,-194.133c0.171,-12.029 0.342,-24.054 0.521,-36.446c0.55,-39.829 0.979,-79.658 1.408,-119.488c0.358,-27.588 0.721,-55.175 1.092,-82.758c0.958,-72.667 1.817,-145.333 2.654,-218c0.871,-74.129 1.837,-148.254 2.796,-222.379c1.867,-145.488 3.621,-290.979 5.325,-436.471Z" style="fill:#0a5484;fill-rule:nonzero;"/><path d="M7447.921,1708.65l312.5,0c0.788,162.246 1.425,324.487 1.8,486.733c0.179,75.35 0.425,150.704 0.821,226.054c0.379,72.833 0.583,145.663 0.675,218.496c0.062,27.671 0.188,55.342 0.375,83.012c1.721,263.396 -13.146,521.625 -205.767,721.275c-208.125,179.183 -602.521,266.233 -874.296,260.958c-5.896,-32.533 -11.654,-65.092 -17.363,-97.658c-3.221,-18.129 -6.446,-36.254 -9.767,-54.933c-7.371,-54.108 -8.904,-105.387 -7.596,-159.912c38.675,-8.792 77.383,-17.446 116.104,-26.042c21.55,-4.833 43.104,-9.667 65.308,-14.65c51.646,-9.546 96.258,-13.787 148.45,-11.392c-38.504,-531.45 -169.383,-959.513 -520.833,-1371.529c27.546,-67.758 71.762,-109.988 123.7,-160.592c15.8,-15.487 31.6,-30.975 47.879,-46.929c12.129,-11.725 24.258,-23.454 36.758,-35.537c79.217,61.562 138.992,124.871 197.483,206.162c8.229,11.408 16.458,22.817 24.942,34.571c256.617,363.354 385.9,774.754 402.579,1217.6c84.004,-70.383 116.542,-135.921 138.888,-243.054c7.933,-94.954 8.5,-189.692 8.883,-284.9c0.292,-27.412 0.608,-54.825 0.946,-82.237c0.821,-71.667 1.342,-143.329 1.796,-214.996c0.521,-73.325 1.325,-146.646 2.108,-219.971c1.487,-143.512 2.633,-287.021 3.629,-430.533l-0.004,0.004Z" style="fill:#2f9739;fill-rule:nonzero;"/><path d="M3281.254,1708.65l277.779,0l0,208.333c17.387,-0.717 34.779,-1.433 52.692,-2.171c71.975,2.271 129.242,15.95 197.958,36.892c32.192,9.667 32.192,9.667 65.038,19.533c16.138,5.012 32.271,10.025 48.896,15.192c-16.921,100.725 -34.942,188.192 -86.804,277.779c-75.667,-8.9 -138.175,-23.3 -208.333,-52.083c-103.808,-25.321 -257.779,-49.604 -352.783,6.375c-32.287,26.908 -32.287,26.908 -42.183,69.579c17.404,60.912 50.692,81.242 104.438,111.829c67.562,29.246 137.221,46.096 208.575,63.692c172.633,43.312 332.917,109.533 440.567,256.537c44.925,91.546 35.133,191.325 23.329,290.596c-44.921,126.779 -152.85,214.325 -269.096,274.521c-61.221,20.771 -118.083,31.425 -182.292,37.979l0,208.333l-277.779,0l0,-208.333c-17.479,0.671 -34.958,1.342 -52.967,2.033c-70.3,-2.088 -126.133,-14.504 -193.346,-34.588c-20.658,-6.042 -41.312,-12.083 -62.596,-18.312c-44.629,-14.896 -84.062,-30.688 -125.121,-53.304c16.921,-100.725 34.942,-188.192 86.804,-277.779c78.688,15.812 153.287,32.962 227.867,62.933c108.963,37.8 231.425,37.362 345.05,23.871c42.604,-20.304 42.604,-20.304 69.446,-52.083c5.8,-54.267 5.8,-54.267 0,-104.167c-86.817,-49.608 -167.458,-78.196 -264.758,-101.996c-187.725,-47.158 -354.429,-113.021 -464.408,-279.95c-34.679,-104.038 -37.917,-233.954 -2.85,-338.338c74.2,-128.229 192.971,-200.904 331.354,-244.208c36.079,-7.729 36.079,-7.729 105.525,-7.729l0,-190.971l-0,0.004Z" style="fill:#35993d;fill-rule:nonzero;"/><path d="M5920.142,2281.567l329.862,0c1.571,143.071 2.846,286.137 3.6,429.217c0.363,66.442 0.854,132.879 1.642,199.321c0.758,64.163 1.171,128.321 1.35,192.492c0.129,24.433 0.379,48.867 0.754,73.3c0.508,34.317 0.533,68.642 0.542,102.967c0.154,19.508 0.308,39.017 0.467,59.113c-10.333,67.7 -35.654,105.558 -77.796,158.875c-48.596,24.296 -89.367,20.246 -143.729,20.983c-11.183,0.171 -22.371,0.342 -33.896,0.517c-37.137,0.521 -74.271,0.892 -111.412,1.221c-12.733,0.113 -25.467,0.229 -38.583,0.346c-67.554,0.567 -135.108,0.992 -202.667,1.329c-55.604,0.308 -111.196,0.908 -166.796,1.779c-67.358,1.054 -134.7,1.579 -202.067,1.746c-25.512,0.146 -51.021,0.471 -76.529,0.983c-214.042,4.079 -370.521,-43.967 -534.738,-185.154c-30.654,-44.283 -30.654,-44.283 -56.425,-92.229c-8.683,-15.688 -17.367,-31.375 -26.313,-47.542c-79.646,-190.292 -51.467,-423.042 10.375,-613.538c20.279,-45.3 20.279,-45.3 72.363,-97.383c85.938,45.833 171.875,91.667 260.417,138.887c-8.592,30.796 -17.188,61.588 -26.042,93.317c-29.867,120.596 -46.346,227.721 -6.508,347.221c38.85,54.387 75.388,89.242 136.717,115.017c67.913,10.454 135.238,10.508 203.858,10.579c17.3,0.271 34.6,0.542 52.425,0.821c64.308,0.908 128.621,1.229 192.933,1.621c143.946,1.433 287.892,2.867 436.2,4.342l0,-920.137l-0.004,-0.008Z" style="fill:#31983a;fill-rule:nonzero;"/><path d="M149.179,2797.875c24.538,-0.183 24.538,-0.183 49.567,-0.371c26.871,0.062 26.871,0.062 54.283,0.129c28.333,-0.133 28.333,-0.133 57.242,-0.271c62.596,-0.242 125.188,-0.225 187.783,-0.183c43.396,-0.067 86.792,-0.142 130.188,-0.225c91.013,-0.129 182.025,-0.125 273.033,-0.033c105.238,0.104 210.471,-0.108 315.704,-0.479c101.217,-0.342 202.429,-0.396 303.65,-0.333c43.083,-0.008 86.167,-0.1 129.25,-0.275c60.15,-0.213 120.288,-0.096 180.438,0.104c17.912,-0.133 35.825,-0.267 54.283,-0.404c24.537,0.183 24.537,0.183 49.567,0.371c14.225,-0.004 28.446,-0.004 43.1,-0.008c45.587,8.096 60.946,22.137 88.712,58.588c6.917,41.233 6.917,41.233 6.508,86.804c0.2,22.558 0.2,22.558 0.408,45.575c-8.396,50.054 -19.404,62.471 -59,93.317c-36.95,6.504 -36.95,6.504 -80.508,6.496c-24.792,0.183 -24.792,0.183 -50.088,0.371c-27.154,-0.2 -27.154,-0.2 -54.854,-0.404c-19.088,0.062 -38.171,0.125 -57.837,0.192c-63.246,0.142 -126.479,-0.096 -189.725,-0.35c-43.825,-0.008 -87.654,0 -131.479,0.025c-91.904,0 -183.804,-0.175 -275.704,-0.496c-106.321,-0.367 -212.638,-0.429 -318.958,-0.321c-102.217,0.1 -204.433,0 -306.65,-0.196c-43.533,-0.067 -87.067,-0.087 -130.6,-0.058c-60.733,0.008 -121.463,-0.213 -182.196,-0.496c-18.138,0.042 -36.275,0.088 -54.963,0.129c-16.479,-0.125 -32.958,-0.246 -49.938,-0.371c-14.367,-0.038 -28.733,-0.071 -43.537,-0.108c-34.767,-4.417 -34.767,-4.417 -69.488,-39.142c-5.221,-47.742 -5.221,-47.742 -5.425,-104.167c-0.292,-18.621 -0.583,-37.242 -0.883,-56.425c2.083,-15.754 4.163,-31.508 6.308,-47.742c55.179,-36.783 68.654,-39.092 131.817,-39.25l-0.008,0.008Z" style="fill:#025485;fill-rule:nonzero;"/><path d="M652.808,2101.308c78.183,8.808 133.188,39.062 201.146,77.175c19.35,10.65 19.35,10.65 39.092,21.521c25.929,14.396 51.787,28.917 77.571,43.567c22.771,12.929 45.625,25.717 68.596,38.283c27.458,15.033 54.579,30.679 81.667,46.371c15.062,8.662 30.121,17.321 45.642,26.246c31.4,31.263 31.4,31.263 38.925,82.738c-7.737,54.167 -17.275,77.9 -50.929,119.967c-8.058,10.338 -16.113,20.679 -24.412,31.333c-6.267,7.563 -12.533,15.129 -18.988,22.921c-101.329,-8.15 -170.225,-37.55 -257.163,-88.975c-12.05,-6.946 -24.104,-13.896 -36.521,-21.054c-96.763,-56.525 -189.458,-117.992 -279.237,-185.108c19.708,-201.017 19.708,-201.017 114.612,-214.979l0,-0.004Z" style="fill:#0a5888;fill-rule:nonzero;"/><path d="M1903.283,0.004c80.338,9.963 134.037,44.938 201.754,87.55c26.104,16.054 52.217,32.104 78.329,48.15c18.846,11.708 18.846,11.708 38.071,23.65c45.946,27.837 93.408,52.6 140.763,77.938c66.133,40.108 66.133,40.108 83.55,99.825c-18.846,64.621 -39.904,105.633 -84.638,156.25c-59.579,17.625 -92.662,21.671 -151.271,-0.283c-23.446,-13.658 -23.446,-13.658 -47.367,-27.587c-17.287,-9.925 -34.575,-19.85 -52.387,-30.075c-17.779,-10.596 -35.563,-21.192 -53.879,-32.112c-26.771,-15.392 -26.771,-15.392 -54.083,-31.096c-166.9,-97.025 -166.9,-97.025 -231.288,-156.625c-1.283,-70.679 11.542,-111.396 46.658,-172.525c40.146,-35.808 40.146,-35.808 85.787,-43.062l-0,0.004Z" style="fill:#085584;fill-rule:nonzero;"/><path d="M10520.837,1344.067c61.438,28.671 83.521,47.154 121.529,104.167c7.579,57.392 12.333,100.942 -18.242,151.979c-46.812,57.308 -77.579,87.571 -151.029,97.588c-60.833,-7.021 -94.617,-23.338 -139.704,-65.104c-38.112,-51.479 -43.967,-104.329 -38.25,-167.1c47.788,-109.913 109.717,-131.525 225.696,-121.529Z" style="fill:#0f5787;fill-rule:nonzero;"/><path d="M10763.892,1726.013c50.721,31.85 94.317,67.108 121.529,121.529c7.129,80.208 -1.1,127.683 -52.083,190.971c-63.125,35.829 -119.208,45.188 -190.971,34.721c-44.667,-37.721 -77.95,-69.096 -104.167,-121.529c-4.404,-67.5 -5.7,-117.788 34.721,-173.613c63.525,-49.408 111.108,-65.121 190.971,-52.083l0,0.004Z" style="fill:#0e5786;fill-rule:nonzero;"/><path d="M10277.783,1726.013c96.858,54.825 96.858,54.825 121.529,104.167c6.288,76.688 8.929,120.642 -24.958,189.888c-54.304,43.708 -92.558,53.908 -161.471,57.442c-51.467,-5.6 -88.525,-23.15 -125.325,-59.95c-37.967,-65.267 -35.754,-132.971 -18.108,-204.738c50.017,-76.554 119.363,-103.487 208.333,-86.804l0,-0.004Z" style="fill:#0d5686;fill-rule:nonzero;"/><path d="M5607.642,3757.263c48.783,31.137 78.288,52.408 104.167,104.167c2.125,78.65 -3.154,138.6 -53.167,200.738c-65.667,32.133 -118.179,42.196 -189.888,24.958c-63.254,-51.142 -100.537,-88.871 -109.592,-170.354c6.671,-68.025 27.867,-93.758 74.871,-142.146c55.587,-27.792 113.296,-26.029 173.612,-17.362l-0.004,0Z" style="fill:#31983b;fill-rule:nonzero;"/><path d="M2881.95,1795.454c11.458,5.729 22.917,11.458 34.721,17.362c-68.75,68.75 -137.5,137.5 -208.333,208.333c0,-79.554 50.625,-118.375 104.167,-173.612c41.233,-33.637 41.233,-33.637 69.446,-52.083Z" style="fill:#cbdde8;fill-rule:nonzero;"/><path d="M1770.837,3253.788l138.887,0c-5.729,22.917 -11.458,45.833 -17.362,69.446c-35.079,-10.45 -69.812,-22.1 -104.167,-34.721c-5.729,-11.458 -11.458,-22.917 -17.362,-34.721l0.004,-0.004Z" style="fill:#286795;fill-rule:nonzero;"/></svg>