<?xml version="1.0" encoding="UTF-8"?>
<svg version="1.1" xmlns="http://www.w3.org/2000/svg" width="1536" height="1024">
<path d="M0 0 C506.88 0 1013.76 0 1536 0 C1536 337.92 1536 675.84 1536 1024 C1029.12 1024 522.24 1024 0 1024 C0 686.08 0 348.16 0 0 Z " fill="#FEFEFE" transform="translate(0,0)"/>
<path d="M0 0 C2.55200195 1.11401367 2.55200195 1.11401367 5.23828125 2.66796875 C6.22376953 3.23193359 7.20925781 3.79589844 8.22460938 4.37695312 C9.24361328 4.97443359 10.26261719 5.57191406 11.3125 6.1875 C12.31990234 6.76564453 13.32730469 7.34378906 14.36523438 7.93945312 C29.89050481 16.89050481 29.89050481 16.89050481 33 20 C33.55112334 24.86366347 32.44080768 27.70528688 30 31.875 C29.443125 32.84179688 28.88625 33.80859375 28.3125 34.8046875 C27.879375 35.52914062 27.44625 36.25359375 27 37 C28.175625 37.33 29.35125 37.66 30.5625 38 C48.37811381 43.97594605 68.52678803 57.24213979 79 73 C79.68359375 75.734375 79.68359375 75.734375 80 78 C79.20335937 78.44730469 78.40671875 78.89460938 77.5859375 79.35546875 C66.42336533 85.72438158 59.51991668 91.20020829 54.625 103.4375 C52.71078003 114.3485538 54.33058156 124.41231369 60.3125 133.875 C62 137 62 137 62 139.8125 C60.89082791 143.34798605 59.53782099 146.72172961 58.11328125 150.140625 C56.47046556 154.36006741 55.20926489 158.67848566 53.9296875 163.01953125 C53.07856081 165.7481433 52.101201 168.36393921 51 171 C52.1446875 171.3403125 52.1446875 171.3403125 53.3125 171.6875 C57.41222945 173.14672574 61.28338438 174.93275844 65.23046875 176.7578125 C68.76871434 178.34478302 72.35058633 179.69171963 76 181 C76 181.33 76 181.66 76 182 C52.49056466 182.83301149 25.31657387 181.26220794 5 168 C5 167.67 5 167.34 5 167 C5.82242188 166.91363281 6.64484375 166.82726562 7.4921875 166.73828125 C18.41474693 165.36350183 26.34624073 162.75277829 33.52734375 154.16015625 C41.12679576 143.01294946 42.35981539 128.72268007 40.53125 115.6484375 C38.80637048 106.88029993 35.81336174 98.52787895 28.4375 93 C23.37736257 90.05592004 18.8739343 88.69427662 13.125 87.625 C7.63949637 86.50139369 3.59272431 85.17116679 -1 82 C-1.26876953 82.7209082 -1.53753906 83.44181641 -1.81445312 84.18457031 C-3.84517318 89.00711226 -6.74138397 93.3158688 -9.5 97.75 C-10.09425781 98.72066406 -10.68851562 99.69132812 -11.30078125 100.69140625 C-11.87183594 101.61308594 -12.44289063 102.53476562 -13.03125 103.484375 C-13.55267578 104.32709961 -14.07410156 105.16982422 -14.61132812 106.03808594 C-16 108 -16 108 -18 109 C-24.44412638 109.71960759 -27.95605829 107.77377792 -33.1875 104.4375 C-34.68199546 103.51774769 -36.17678916 102.59847981 -37.671875 101.6796875 C-38.40212891 101.22432617 -39.13238281 100.76896484 -39.88476562 100.29980469 C-43.78077161 97.9057216 -47.78770488 95.70619548 -51.77734375 93.47265625 C-54 92 -54 92 -56 89 C-56.84673676 82.55055649 -54.73466545 79.09429118 -51.3125 73.9375 C-50.29755783 72.34497287 -49.28462519 70.75116371 -48.2734375 69.15625 C-47.7381543 68.31964844 -47.20287109 67.48304688 -46.65136719 66.62109375 C-43.8146159 62.11852695 -41.13080014 57.52680998 -38.4375 52.9375 C-37.88755371 52.00429932 -37.33760742 51.07109863 -36.77099609 50.10961914 C-33.88858931 45.21824923 -31.01457822 40.32196133 -28.14160156 35.42504883 C-26.53763918 32.69421506 -24.92836121 29.96653437 -23.31835938 27.23925781 C-22.37145889 25.6309298 -21.42783327 24.02067204 -20.48632812 22.40917969 C-18.89384629 19.6851976 -17.29141043 16.96726511 -15.6875 14.25 C-15.19564209 13.40356934 -14.70378418 12.55713867 -14.19702148 11.68505859 C-6.83026505 -0.73279414 -6.83026505 -0.73279414 0 0 Z " fill="#055584" transform="translate(500,373)"/>
<path d="M0 0 C7.45191063 -0.2044048 14.90308762 -0.34358675 22.35717773 -0.43945312 C24.88772596 -0.47945414 27.41809202 -0.53387464 29.94799805 -0.60351562 C56.15498851 -1.3063653 56.15498851 -1.3063653 67 8 C75.69102039 13.03125347 85.33719701 16.40095046 95 19 C96.12277344 19.34289062 97.24554687 19.68578125 98.40234375 20.0390625 C114.46857494 24.53486294 131.44490886 23.83983398 148 24 C144.83596557 27.21046266 141.7722801 30.05804316 138.0625 32.625 C137.24910156 33.19476562 136.43570313 33.76453125 135.59765625 34.3515625 C132.81711278 36.11605776 129.95270819 37.5463825 127 39 C127.95777344 39.0093457 128.91554688 39.01869141 129.90234375 39.02832031 C133.48857496 39.06848337 137.07397179 39.13431125 140.65966797 39.20751953 C142.20545657 39.23557787 143.75138461 39.25686706 145.29736328 39.27099609 C163.28815127 39.44521289 163.28815127 39.44521289 169.875 45.8125 C172.52642041 50.96803968 173 55.19591519 173 61 C106.34 61 39.68 61 -29 61 C-29 53.63811191 -28.08781298 50.74293292 -24 45 C-20.05761987 41.33266965 -17.59234977 39.8901191 -12.27490234 39.79467773 C-11.29403656 39.77473251 -10.31317078 39.75478729 -9.30258179 39.73423767 C-7.71034286 39.70916893 -7.71034286 39.70916893 -6.0859375 39.68359375 C-5.00116119 39.66281265 -3.91638489 39.64203156 -2.79873657 39.62062073 C0.67577621 39.55509366 4.15036624 39.49622553 7.625 39.4375 C9.97657058 39.39431779 12.32813326 39.3507036 14.6796875 39.30664062 C20.4530427 39.19940907 26.2264752 39.09764856 32 39 C31.4536792 38.73413589 30.9073584 38.46827179 30.34448242 38.1943512 C29.62623291 37.84090134 28.9079834 37.48745148 28.16796875 37.12329102 C27.45664795 36.77492691 26.74532715 36.42656281 26.01245117 36.06764221 C13.18473612 29.26230439 5.07014226 15.04025225 0 2 C0 1.34 0 0.68 0 0 Z " fill="#1B9531" transform="translate(432,540)"/>
<path d="M0 0 C5.94 0 11.88 0 18 0 C18 28.05 18 56.1 18 85 C50.34 85 82.68 85 116 85 C116.63333333 68.9 116.63333333 68.9 113 64 C110.5340529 63.54320747 110.5340529 63.54320747 107.61987305 63.61523438 C106.49497971 63.60512329 105.37008636 63.59501221 104.21110535 63.58459473 C102.99030777 63.58761597 101.76951019 63.59063721 100.51171875 63.59375 C99.26123245 63.58291382 98.01074615 63.57207764 96.72236633 63.56091309 C92.71068472 63.52652112 88.6992952 63.51042429 84.6875 63.5 C79.42030792 63.48627432 74.15375951 63.45178741 68.88671875 63.40625 C67.67199387 63.40927124 66.45726898 63.41229248 65.20573425 63.41540527 C64.07138443 63.40529419 62.93703461 63.39518311 61.76831055 63.38476562 C60.77284714 63.38271118 59.77738373 63.38065674 58.75175476 63.37854004 C54.28418202 62.76396668 51.72009732 60.80010813 48.75 57.5 C46.31657565 54.02367949 45.4646776 50.81861816 45.53515625 46.56640625 C47.90166013 33.50091842 57.79662267 22.63908169 68.25 15.25 C83.49957699 5.01562266 99.69922663 0.15858513 118 1 C118 7.27 118 13.54 118 20 C115.6075 20.0825 113.215 20.165 110.75 20.25 C95.98047785 21.04473881 81.15440914 26.91157681 71 38 C69.98341108 39.65660036 68.98149286 41.32236788 68 43 C68.54964417 43.00586624 69.09928833 43.01173248 69.66558838 43.01777649 C75.44209382 43.08224542 81.21806935 43.16679482 86.99414062 43.26245117 C89.14315761 43.2954857 91.29225688 43.32358275 93.44140625 43.34643555 C121.56825839 43.65358286 121.56825839 43.65358286 129.0625 49.3125 C133.41200119 55.34567907 134.46698476 59.90081227 134.46875 67.16015625 C134.47636353 68.02764999 134.48397705 68.89514374 134.49182129 69.78892517 C134.50258574 71.61519503 134.50549031 73.44152626 134.50097656 75.26782227 C134.50000163 78.05784456 134.54171619 80.84513802 134.5859375 83.63476562 C134.59114318 85.41405679 134.59383272 87.19335747 134.59375 88.97265625 C134.61014526 89.80297867 134.62654053 90.63330109 134.64343262 91.48878479 C134.6341272 92.26987106 134.62482178 93.05095734 134.61523438 93.85571289 C134.61728882 94.53710831 134.61934326 95.21850372 134.62145996 95.92054749 C133.54274068 99.53002463 132.07487177 100.80922856 129 103 C125.04769793 103.75304935 121.1424325 103.69311198 117.12890625 103.6628418 C115.92676483 103.67320969 114.72462341 103.68357758 113.48605347 103.69425964 C110.19653939 103.71669595 106.90802175 103.71661692 103.61848068 103.70455909 C100.86987781 103.69741969 98.12141469 103.70593234 95.37282276 103.71446449 C88.88806854 103.73440561 82.40368308 103.72885983 75.91894531 103.70678711 C69.23335814 103.68441713 62.54873625 103.70203072 55.86324024 103.73983639 C50.11781115 103.77108254 44.37268069 103.778983 38.62717724 103.76788265 C35.19795039 103.76139941 31.76928063 103.76337825 28.34011841 103.78720665 C24.51640028 103.80713082 20.69471743 103.78883032 16.87109375 103.76049805 C15.17060379 103.78107269 15.17060379 103.78107269 13.4357605 103.80206299 C4.88738016 103.67524087 4.88738016 103.67524087 1.79353333 100.55155945 C-0.52630712 95.95780524 -0.67065161 92.48916454 -0.56762695 87.41455078 C-0.56835709 86.46757828 -0.56908722 85.52060577 -0.56983948 84.54493713 C-0.56636756 81.4278045 -0.52752428 78.31218274 -0.48828125 75.1953125 C-0.47895174 73.02913225 -0.47183628 70.86294142 -0.46684265 68.69674683 C-0.44778392 63.00503229 -0.39869202 57.31395925 -0.34332275 51.62249756 C-0.29210647 45.81091998 -0.26932348 39.99923838 -0.24414062 34.1875 C-0.19057263 22.79133997 -0.10264516 11.39582378 0 0 Z " fill="#095384" transform="translate(1068,452)"/>
<path d="M0 0 C6.27 0 12.54 0 19 0 C19 17.49 19 34.98 19 53 C25.27 53 31.54 53 38 53 C38 35.84 38 18.68 38 1 C44.27 1 50.54 1 57 1 C57 18.16 57 35.32 57 53 C63.27 53 69.54 53 76 53 C76 35.84 76 18.68 76 1 C81.94 1 87.88 1 94 1 C94.11305399 9.38860616 94.20474504 17.77661811 94.25906086 26.16578197 C94.28513253 30.06141191 94.32048427 33.95649273 94.37719727 37.85180664 C94.43160664 41.61252026 94.46143883 45.37270644 94.47438622 49.13378334 C94.48361035 50.56714492 94.50162371 52.00047828 94.52865028 53.43361473 C94.56504759 55.44398106 94.56704327 57.45488047 94.56762695 59.46557617 C94.57873001 60.60919113 94.58983307 61.75280609 94.60127258 62.93107605 C93.80718614 66.98413116 92.1985681 68.47015346 89 71 C86.21162027 71.44003142 84.05947947 71.59085432 81.29296875 71.48828125 C80.20487663 71.47766914 80.20487663 71.47766914 79.09480286 71.46684265 C76.79129297 71.43898406 74.49026749 71.37627191 72.1875 71.3125 C70.62047797 71.28740563 69.0534176 71.26459444 67.48632812 71.24414062 C63.65660344 71.18918681 59.82872203 71.10298226 56 71 C55.67 70.01 55.34 69.02 55 68 C54.49694336 68.48895752 53.99388672 68.97791504 53.47558594 69.48168945 C50.13937045 71.52783581 47.18065411 71.37666119 43.390625 71.29296875 C42.66381531 71.28872391 41.93700562 71.28447906 41.18817139 71.28010559 C38.87506496 71.2633613 36.56284145 71.22571885 34.25 71.1875 C32.67839803 71.17244758 31.10678236 71.15876015 29.53515625 71.14648438 C25.68976585 71.11347195 21.84503244 71.06172056 18 71 C18.0196582 71.94093506 18.03931641 72.88187012 18.05957031 73.85131836 C17.93966634 80.18902945 13.3255642 86.55428124 9 91 C-1.92144375 99.62683739 -12.428522 101.16564842 -26 100 C-34.84504367 98.5092623 -43.15696337 93.06667168 -48.6194458 85.99571228 C-53.23433834 79.32448003 -54.58489596 73.15436469 -54.390625 65.15234375 C-54.38496521 64.25504044 -54.37930542 63.35773712 -54.37347412 62.4332428 C-54.35129623 59.60075805 -54.30113739 56.76959461 -54.25 53.9375 C-54.22991087 52.00327363 -54.21166436 50.0690272 -54.1953125 48.13476562 C-54.15491394 43.42227334 -54.07659296 38.71259448 -54 34 C-48.06 34 -42.12 34 -36 34 C-35.97421875 36.51753906 -35.9484375 39.03507813 -35.921875 41.62890625 C-35.88339008 44.08482734 -35.83825088 46.54054303 -35.79248047 48.99633789 C-35.76436929 50.69447922 -35.74310598 52.39274901 -35.72900391 54.09106445 C-35.70743648 56.54184257 -35.66071994 58.99109236 -35.609375 61.44140625 C-35.60814636 62.19273331 -35.60691772 62.94406036 -35.60565186 63.71815491 C-35.45549532 69.20258791 -34.08406965 72.45024465 -31 77 C-26.76120884 80.6215796 -21.69962244 81.60328355 -16.23828125 81.3203125 C-11.0253786 80.57431247 -7.22778311 79.29074635 -3.5625 75.4375 C-0.9780474 71.40575395 -0.85431785 69.0777003 -0.79467773 64.25537109 C-0.78477814 63.56257553 -0.77487854 62.86977997 -0.76467896 62.1559906 C-0.73304503 59.86184122 -0.70829914 57.56767111 -0.68359375 55.2734375 C-0.66302585 53.68445288 -0.64202942 52.09547376 -0.62062073 50.50650024 C-0.56538309 46.32096805 -0.51598131 42.13538634 -0.46777344 37.94976807 C-0.41757074 33.6800088 -0.36187826 29.41032158 -0.30664062 25.140625 C-0.19903835 16.76047588 -0.0981052 8.38026569 0 0 Z " fill="#0A5484" transform="translate(959,484)"/>
<path d="M0 0 C5.94 0 11.88 0 18 0 C18.0453351 9.34530704 18.08196443 18.69054004 18.10362434 28.03593254 C18.11402437 32.37621041 18.12811384 36.7164086 18.15087891 41.05664062 C18.17274298 45.25174865 18.184597 49.44678043 18.18975449 53.64194107 C18.19342604 55.23577193 18.20059511 56.82959901 18.21146011 58.42339706 C18.31069446 73.59509553 17.45425168 88.46895081 6.359375 99.96875 C-5.62873249 110.28963725 -28.34580372 115.30369693 -44 115 C-44.3396019 113.12612523 -44.67138691 111.25083303 -45 109.375 C-45.185625 108.33085938 -45.37125 107.28671875 -45.5625 106.2109375 C-45.98715797 103.09425135 -46.07545206 100.14069188 -46 97 C-43.77228658 96.49356447 -41.54275924 95.9951038 -39.3125 95.5 C-38.07113281 95.2215625 -36.82976563 94.943125 -35.55078125 94.65625 C-32.57601782 94.10645874 -30.00631398 93.86204295 -27 94 C-29.21776252 63.38856655 -36.75655474 38.73211156 -57 15 C-55.41332422 11.09714233 -52.86649519 8.66479018 -49.875 5.75 C-48.96492187 4.85796875 -48.05484375 3.9659375 -47.1171875 3.046875 C-46.41851563 2.37140625 -45.71984375 1.6959375 -45 1 C-40.43703289 4.54600083 -36.99404302 8.19264275 -33.625 12.875 C-33.15094727 13.53209961 -32.67689453 14.18919922 -32.18847656 14.86621094 C-17.40730935 35.79538558 -9.96069096 59.49199877 -9 85 C-4.16136126 80.94600538 -2.28709842 77.17099054 -1 71 C-0.54304668 65.5306239 -0.51044016 60.0738001 -0.48828125 54.58984375 C-0.47141007 53.01085536 -0.45325659 51.43188021 -0.43388367 49.85292053 C-0.3866419 45.72502783 -0.35666639 41.5971888 -0.33044434 37.46911621 C-0.3005075 33.24557909 -0.25402271 29.02222643 -0.20898438 24.79882812 C-0.12324543 16.53262805 -0.05730255 8.26644616 0 0 Z " fill="#2F9739" transform="translate(832,451)"/>
<path d="M0 0 C5.28 0 10.56 0 16 0 C16 3.96 16 7.92 16 12 C17.00160156 11.95875 18.00320313 11.9175 19.03515625 11.875 C23.18098858 12.00570604 26.47953774 12.79376388 30.4375 14 C32.29181641 14.556875 32.29181641 14.556875 34.18359375 15.125 C35.11300781 15.41375 36.04242187 15.7025 37 16 C36.02541328 21.80165739 34.98746845 26.83982722 32 32 C27.64165099 31.48725306 24.04106581 30.65787315 20 29 C14.02059388 27.54160826 5.15201831 26.14275015 -0.3203125 29.3671875 C-2.18007669 30.91703967 -2.18007669 30.91703967 -2.75 33.375 C-1.74757542 36.88348602 0.16994241 38.0545018 3.265625 39.81640625 C7.15724052 41.50091983 11.16956803 42.47151473 15.27954102 43.48510742 C25.22325721 45.98002213 34.45557754 49.79429102 40.65625 58.26171875 C43.24388421 63.53477568 42.67994407 69.28199416 42 75 C39.41252365 82.30243327 33.19583096 87.34501611 26.5 90.8125 C22.97366298 92.00893577 19.69837997 92.62261429 16 93 C16 96.96 16 100.92 16 105 C10.72 105 5.44 105 0 105 C0 101.04 0 97.08 0 93 C-1.00675781 93.03867187 -2.01351562 93.07734375 -3.05078125 93.1171875 C-7.10005082 92.99703113 -10.3161492 92.28176131 -14.1875 91.125 C-15.37730469 90.77695312 -16.56710937 90.42890625 -17.79296875 90.0703125 C-20.36367952 89.21236518 -22.63501031 88.30279829 -25 87 C-24.02541328 81.19834261 -22.98746845 76.16017278 -20 71 C-15.46760024 71.91076591 -11.17058957 72.89858209 -6.875 74.625 C-0.59876426 76.80224284 6.45519455 76.77714803 13 76 C15.45409179 74.83038507 15.45409179 74.83038507 17 73 C17.33397787 69.87413125 17.33397787 69.87413125 17 67 C11.99940146 64.14251512 7.35434332 62.49584657 1.75 61.125 C-9.06296452 58.40862162 -18.66517241 54.61499722 -25 45 C-26.9975049 39.00748529 -27.18399187 31.52431225 -25.1640625 25.51171875 C-20.89020624 18.12569198 -14.04882717 13.93974088 -6.078125 11.4453125 C-4 11 -4 11 0 11 C0 7.37 0 3.74 0 0 Z " fill="#35993D" transform="translate(592,451)"/>
<path d="M0 0 C6.27 0 12.54 0 19 0 C19.09050631 8.24094769 19.16383338 16.48150653 19.20724869 24.72281837 C19.22808989 28.54993842 19.256343 32.37669969 19.30175781 36.20361328 C19.34534101 39.8994739 19.36916318 43.59499026 19.37950897 47.2910881 C19.38687813 48.69847403 19.40126863 50.10584193 19.42292023 51.5130806 C19.45211392 53.48981471 19.45363525 55.46689804 19.45410156 57.44384766 C19.46298401 58.56747711 19.47186646 59.69110657 19.48101807 60.8487854 C18.8857668 64.74835718 17.42732292 66.92883693 15 70 C12.2009419 71.39952905 9.8525541 71.16615292 6.72119141 71.20874023 C6.07693207 71.21852402 5.43267273 71.2283078 4.76889038 71.23838806 C2.62980198 71.26837024 0.49077703 71.28974905 -1.6484375 71.30859375 C-2.38183979 71.31516558 -3.11524208 71.3217374 -3.87086868 71.32850838 C-7.76203735 71.36113306 -11.65317853 71.38556204 -15.54443359 71.4050293 C-18.74732157 71.42275208 -21.94931399 71.45741836 -25.15185547 71.50756836 C-29.03168487 71.56824602 -32.91069244 71.59857109 -36.79097366 71.60820198 C-38.26042871 71.61668762 -39.72986596 71.63533261 -41.19904709 71.6649456 C-53.52779069 71.89981897 -62.54097217 69.13247308 -72 61 C-73.765625 58.44921875 -73.765625 58.44921875 -75.25 55.6875 C-75.75015625 54.78386719 -76.2503125 53.88023437 -76.765625 52.94921875 C-81.35319252 41.98841661 -79.73001461 28.58211398 -76.16796875 17.609375 C-75 15 -75 15 -72 12 C-67.05 14.64 -62.1 17.28 -57 20 C-57.495 21.77375 -57.99 23.5475 -58.5 25.375 C-60.22021731 32.32140132 -61.16940584 38.49178247 -58.875 45.375 C-56.63726713 48.50782602 -54.53256913 50.51536753 -51 52 C-47.08816249 52.60205542 -43.21025986 52.60521046 -39.2578125 52.609375 C-38.26128662 52.62500488 -37.26476074 52.64063477 -36.23803711 52.65673828 C-32.53393154 52.70913494 -28.82940824 52.72756985 -25.125 52.75 C-16.83375 52.8325 -8.5425 52.915 0 53 C0 35.51 0 18.02 0 0 Z " fill="#31983A" transform="translate(744,484)"/>
<path d="M0 0 C1.41326065 -0.01062721 1.41326065 -0.01062721 2.85507202 -0.02146912 C4.40274765 -0.01775299 4.40274765 -0.01775299 5.98168945 -0.01396179 C7.61371811 -0.02162819 7.61371811 -0.02162819 9.27871704 -0.02944946 C12.88419049 -0.0433783 16.48947351 -0.04238636 20.0949707 -0.04008484 C22.59456453 -0.04396962 25.0941577 -0.04830384 27.59375 -0.05307007 C32.83603544 -0.06053912 38.07827134 -0.06037356 43.32055664 -0.05497742 C49.38217534 -0.04893393 55.44356213 -0.06125777 61.50514126 -0.08254749 C67.33520504 -0.10227189 73.16517773 -0.10533923 78.99526978 -0.10181236 C81.47686305 -0.10232703 83.95845991 -0.1075918 86.44003296 -0.11762428 C89.90462299 -0.12991243 93.36867109 -0.12324286 96.83325195 -0.11161804 C97.86503571 -0.11926178 98.89681946 -0.12690552 99.95986938 -0.13478088 C101.37313004 -0.12425941 101.37313004 -0.12425941 102.81494141 -0.11352539 C103.63420609 -0.11369313 104.45347076 -0.11386087 105.29756165 -0.1140337 C107.92351673 0.3523487 108.80808389 1.16105517 110.4074707 3.26069641 C110.8059082 5.63569641 110.8059082 5.63569641 110.7824707 8.26069641 C110.79407227 9.56007141 110.79407227 9.56007141 110.8059082 10.88569641 C110.32222317 13.76883858 109.68820083 14.48391004 107.4074707 16.26069641 C105.27915096 16.63542652 105.27915096 16.63542652 102.77024841 16.63491821 C101.34219879 16.64543968 101.34219879 16.64543968 99.88529968 16.65617371 C98.32124138 16.6447081 98.32124138 16.6447081 96.72558594 16.63301086 C95.62620697 16.63666153 94.526828 16.64031219 93.39413452 16.64407349 C89.75128857 16.65219581 86.10888504 16.63855536 82.46606445 16.62397766 C79.94165548 16.6234593 77.4172461 16.62397608 74.89283752 16.62548828 C69.59922779 16.62539848 64.30577417 16.61529021 59.01220703 16.59687805 C52.88812207 16.57569944 46.7642246 16.57220284 40.64011043 16.57844001 C34.75237835 16.58412986 28.86470289 16.57838906 22.97697639 16.56726646 C20.46944508 16.56340687 17.9619081 16.56226937 15.45437431 16.56385231 C11.95612571 16.56422152 8.45816627 16.55164347 4.95996094 16.53535461 C3.91523117 16.53783203 2.8705014 16.54030945 1.79411316 16.54286194 C0.8448999 16.53577713 -0.10431335 16.52869232 -1.08229065 16.52139282 C-1.90985147 16.51933995 -2.73741228 16.51728708 -3.5900507 16.515172 C-5.5925293 16.26069641 -5.5925293 16.26069641 -7.5925293 14.26069641 C-7.89331055 11.51069641 -7.89331055 11.51069641 -7.9050293 8.26069641 C-7.92178711 7.18819641 -7.93854492 6.11569641 -7.95581055 5.01069641 C-7.83592773 4.10319641 -7.71604492 3.19569641 -7.5925293 2.26069641 C-4.41431697 0.14188819 -3.63812662 0.00911622 0 0 Z " fill="#025485" transform="translate(411.592529296875,513.7393035888672)"/>
<path d="M0 0 C1.0725 0.7425 2.145 1.485 3.25 2.25 C4.054375 2.765625 4.85875 3.28125 5.6875 3.8125 C8.35843153 7.97915318 7.93661744 12.46448448 7.25 17.25 C5.11353475 21.68118719 2.87422478 24.4790203 -1.75 26.25 C-6.18168742 26.85986524 -10.64981133 27.3332989 -14.7265625 25.23046875 C-18.01116015 22.55263175 -20.53659579 19.80672752 -21.12109375 15.54296875 C-21.32248677 6.12488359 -21.32248677 6.12488359 -18.5 2.625 C-12.85868773 -2.24704242 -6.8112348 -3.72054546 0 0 Z " fill="#F6F9FA" transform="translate(524.75,421.75)"/>
<path d="M0 0 C4.50346222 0.50728655 7.67169422 2.24990388 11.5859375 4.4453125 C12.70053345 5.05886597 12.70053345 5.05886597 13.83764648 5.68481445 C15.33106173 6.51402272 16.82049584 7.35044565 18.30566406 8.19433594 C19.61720773 8.93915565 20.93360307 9.67556466 22.25683594 10.39941406 C23.83845753 11.26534505 25.40062589 12.16654759 26.9609375 13.0703125 C27.82847656 13.56917969 28.69601562 14.06804687 29.58984375 14.58203125 C31.3984375 16.3828125 31.3984375 16.3828125 31.83203125 19.34765625 C31.38630675 22.46772772 30.83689974 23.8347347 28.8984375 26.2578125 C28.434375 26.85335938 27.9703125 27.44890625 27.4921875 28.0625 C27.13125 28.49820312 26.7703125 28.93390625 26.3984375 29.3828125 C20.56199623 28.91347481 16.59359498 27.2200289 11.5859375 24.2578125 C10.89177734 23.85763916 10.19761719 23.45746582 9.48242188 23.04516602 C3.908822 19.7893712 -1.43032661 16.24880856 -6.6015625 12.3828125 C-5.46642091 0.80436824 -5.46642091 0.80436824 0 0 Z " fill="#0A5888" transform="translate(440.6015625,473.6171875)"/>
<path d="M0 0 C4.62747281 0.57374228 7.72060964 2.58831991 11.62109375 5.04296875 C13.12479851 5.96777561 14.62870412 6.89225598 16.1328125 7.81640625 C17.21828369 8.49074707 17.21828369 8.49074707 18.32568359 9.17871094 C20.97207985 10.78208971 23.70589051 12.20851094 26.43359375 13.66796875 C30.24281676 15.97816192 30.24281676 15.97816192 31.24609375 19.41796875 C30.16046044 23.1401401 28.94762918 25.5024155 26.37109375 28.41796875 C22.93931222 29.43321282 21.03374066 29.66620047 17.65795898 28.40161133 C16.3074646 27.61500122 16.3074646 27.61500122 14.9296875 26.8125 C13.93388672 26.24080078 12.93808594 25.66910156 11.91210938 25.08007812 C10.88794922 24.46970703 9.86378906 23.85933594 8.80859375 23.23046875 C7.26655273 22.34391602 7.26655273 22.34391602 5.69335938 21.43945312 C-3.9201039 15.85080986 -3.9201039 15.85080986 -7.62890625 12.41796875 C-7.70292576 8.34689591 -6.96422585 6.00167323 -4.94140625 2.48046875 C-2.62890625 0.41796875 -2.62890625 0.41796875 0 0 Z " fill="#085584" transform="translate(512.62890625,352.58203125)"/>
<path d="M0 0 C2.475 0.495 2.475 0.495 5 1 C4.6280204 7.2823221 1.45579912 11.78165353 -1.75 17 C-2.93395765 18.96202004 -4.11754029 20.92426641 -5.30078125 22.88671875 C-5.91131348 23.8926709 -6.5218457 24.89862305 -7.15087891 25.93505859 C-8.97029517 28.95076388 -10.76194265 31.98101835 -12.54296875 35.01953125 C-13.11241211 35.99083984 -13.68185547 36.96214844 -14.26855469 37.96289062 C-15.34959019 39.80868441 -16.42972627 41.65500538 -17.50878906 43.50195312 C-20.42069729 48.44938819 -23.45358176 53.26693622 -26.70532227 57.9987793 C-27.96393014 59.94424579 -29.00614452 61.90889058 -30 64 C-31.65 63.67 -33.3 63.34 -35 63 C-35.59734586 58.10176397 -33.56941877 55.21150762 -30.9375 51.3125 C-25.43735047 42.86362814 -20.42737124 34.1626276 -15.44311523 25.40161133 C-11.96495677 19.31448597 -8.37554883 13.33522746 -4.56713867 7.44848633 C-2.99558976 4.99310948 -1.48826216 2.50656153 0 0 Z " fill="#ECF2F5" transform="translate(497,388)"/>
<path d="M0 0 C3.5386994 1.65139305 4.81070153 2.71605229 7 6 C7.43660384 9.30571478 7.71042728 11.81419387 5.94921875 14.75390625 C3.25285888 18.05475978 1.48068303 19.79808868 -2.75 20.375 C-6.25410161 19.97068058 -8.1998617 19.03065443 -10.796875 16.625 C-12.9921926 13.65989571 -13.3293664 10.61571115 -13 7 C-10.24735684 0.66892073 -6.68030367 -0.57588825 0 0 Z " fill="#0F5787" transform="translate(1009,430)"/>
<path d="M0 0 C2.92152702 1.8344472 5.4326609 3.86532181 7 7 C7.41067154 11.62005487 6.93664706 14.3545071 4 18 C0.36404752 20.06364871 -2.86648964 20.60280359 -7 20 C-9.57285724 17.827365 -11.48996919 16.02006162 -13 13 C-13.25356203 9.11204889 -13.32836566 6.21536211 -11 3 C-7.34085646 0.15399947 -4.60021906 -0.75105617 0 0 Z " fill="#0E5786" transform="translate(1023,452)"/>
<path d="M0 0 C5.57894737 3.15789474 5.57894737 3.15789474 7 6 C7.36206054 10.41713859 7.51432609 12.94898583 5.5625 16.9375 C2.43462494 19.45505797 0.23117204 20.04270028 -3.73828125 20.24609375 C-6.70272533 19.92353766 -8.83733207 18.91266793 -10.95703125 16.79296875 C-13.14386669 13.0335775 -13.01654726 9.13395887 -12 5 C-9.11904916 0.59038136 -5.12483767 -0.96090706 0 0 Z " fill="#0D5686" transform="translate(995,452)"/>
<path d="M0 0 C2.8100346 1.79363911 4.50940468 3.01880935 6 6 C6.12243863 10.53022942 5.81830145 13.98332245 2.9375 17.5625 C-0.84484524 19.4134349 -3.86951604 19.99298503 -8 19 C-11.64345196 16.05423033 -13.79099354 13.88105815 -14.3125 9.1875 C-13.92835642 5.2692355 -12.70743683 3.78706733 -10 1 C-6.79826746 -0.60086627 -3.47422941 -0.49917089 0 0 Z " fill="#31983B" transform="translate(726,569)"/>
<path d="M0 0 C0.66 0.33 1.32 0.66 2 1 C-1.96 4.96 -5.92 8.92 -10 13 C-10 8.41771462 -7.08388033 6.1816619 -4 3 C-1.625 1.0625 -1.625 1.0625 0 0 Z " fill="#CBDDE8" transform="translate(569,456)"/>
<path d="M0 0 C2.64 0 5.28 0 8 0 C7.67 1.32 7.34 2.64 7 4 C4.97954558 3.39816251 2.97888961 2.72693904 1 2 C0.67 1.34 0.34 0.68 0 0 Z " fill="#286795" transform="translate(505,540)"/>
</svg>
