<?xml version="1.0" encoding="UTF-8"?>
<svg version="1.1" xmlns="http://www.w3.org/2000/svg" width="1536" height="1024">
<path d="M0 0 C506.88 0 1013.76 0 1536 0 C1536 337.92 1536 675.84 1536 1024 C1029.12 1024 522.24 1024 0 1024 C0 686.08 0 348.16 0 0 Z " fill="#FEFEFE" transform="translate(0,0)"/>
<path d="M0 0 C4.99991838 1.05663743 9.3350957 4.11580136 13.671875 6.70898438 C14.67863281 7.29550781 15.68539063 7.88203125 16.72265625 8.48632812 C18.67107076 9.62269045 20.61528975 10.76628529 22.5546875 11.91796875 C24.79383588 13.23639268 27.05162721 14.50378559 29.328125 15.75585938 C32.171875 17.45898438 32.171875 17.45898438 33.171875 19.45898438 C34.19620174 26.48293914 31.02613597 30.75789002 27.171875 36.45898438 C27.74035156 36.62914062 28.30882812 36.79929687 28.89453125 36.97460938 C34.13420644 38.61911511 38.45669489 40.66480357 43.171875 43.45898438 C44.26113281 43.90628906 45.35039063 44.35359375 46.47265625 44.81445312 C50.18518536 46.38303092 53.46487223 48.42716008 56.734375 50.77148438 C57.32645752 51.19518311 57.91854004 51.61888184 58.52856445 52.05541992 C63.32798101 55.60743052 67.63495562 59.55816874 71.859375 63.77148438 C72.44726807 64.35776611 73.03516113 64.94404785 73.64086914 65.5480957 C81.171875 73.27754704 81.171875 73.27754704 81.171875 78.45898438 C80.62660156 78.66652344 80.08132813 78.8740625 79.51953125 79.08789062 C69.99492562 82.97913976 62.91672545 88.2170066 58.171875 97.45898438 C57.81222656 98.1009375 57.45257812 98.74289062 57.08203125 99.40429688 C55.38842153 103.227639 55.44782359 107.33201986 55.171875 111.45898438 C55.03845703 112.52826172 55.03845703 112.52826172 54.90234375 113.61914062 C54.37363096 120.19731135 57.02749102 125.40710356 59.76171875 131.22460938 C62.21713147 136.85641473 62.36665464 139.8792473 60.30078125 145.71289062 C59.89150391 146.89689453 59.48222656 148.08089844 59.06054688 149.30078125 C58.62291016 150.52861328 58.18527344 151.75644531 57.734375 153.02148438 C56.87615941 155.45840858 56.02306008 157.89714234 55.17578125 160.33789062 C54.79236572 161.41627197 54.4089502 162.49465332 54.01391602 163.60571289 C52.98317771 166.60256743 52.98317771 166.60256743 53.171875 170.45898438 C55.90019886 171.75245655 58.62948869 173.04381734 61.359375 174.33398438 C62.12830078 174.69878906 62.89722656 175.06359375 63.68945312 175.43945312 C67.47821086 177.22813704 71.25346903 178.96700615 75.171875 180.45898438 C75.171875 180.78898438 75.171875 181.11898437 75.171875 181.45898438 C61.38283014 182.12944037 48.30812893 181.82544343 34.796875 178.77148438 C33.71237061 178.52769043 32.62786621 178.28389648 31.51049805 178.03271484 C24.05231747 176.21678008 17.18802524 173.54098269 10.171875 170.45898438 C8.50785052 169.78574983 6.84200331 169.11693091 5.171875 168.45898438 C5.171875 167.79898438 5.171875 167.13898438 5.171875 166.45898438 C6.62207031 166.34683594 6.62207031 166.34683594 8.1015625 166.23242188 C18.32212711 165.20024604 25.35559575 163.06120677 32.984375 155.77148438 C41.86095552 142.32980529 43.78831826 125.84658997 40.70751953 110.08300781 C37.92624012 100.39766505 32.45400331 94.90385067 24.296875 89.58398438 C21.44425765 88.55704213 19.5207258 88.27340162 16.546875 88.08398438 C10.20927104 87.6492402 4.87202232 85.11317668 -0.828125 82.45898438 C-1.06660156 83.12929688 -1.30507813 83.79960937 -1.55078125 84.49023438 C-3.14479091 88.1949663 -5.161318 91.52546246 -7.265625 94.95898438 C-7.66072266 95.60996094 -8.05582031 96.2609375 -8.46289062 96.93164062 C-9.23237476 98.19917689 -10.004895 99.4648761 -10.78076172 100.72851562 C-11.6927513 102.235318 -12.5630853 103.76717777 -13.42578125 105.30273438 C-14.828125 107.45898438 -14.828125 107.45898438 -17.828125 109.45898438 C-23.48379696 109.45898438 -27.03762997 107.40499509 -31.734375 104.40429688 C-34.16830518 102.87387108 -36.60900234 101.42887406 -39.109375 100.01367188 C-40.24366943 99.36676392 -40.24366943 99.36676392 -41.40087891 98.70678711 C-42.90976906 97.8480158 -44.42236285 96.99571229 -45.93896484 96.15063477 C-50.04331907 93.78816283 -53.4596384 91.71061196 -55.828125 87.45898438 C-55.88824308 82.04084281 -53.08557669 77.98756308 -50.328125 73.52148438 C-49.65100464 72.39842896 -49.65100464 72.39842896 -48.96020508 71.25268555 C-48.03165993 69.71421847 -47.09912343 68.17815328 -46.16259766 66.64453125 C-44.61803641 64.11490953 -43.09248654 61.57433314 -41.56982422 59.03149414 C-40.85526354 57.8385187 -40.13940167 56.64632185 -39.42236328 55.45483398 C-36.7001325 50.9296659 -34.00896922 46.38672452 -31.3269043 41.83764648 C-29.10720516 38.07340253 -26.88186962 34.31250358 -24.65625 30.55175781 C-23.03440244 27.80795908 -21.41684133 25.0616719 -19.80001831 22.31491089 C-18.1066688 19.44293616 -16.4041158 16.57643963 -14.703125 13.70898438 C-14.06358887 12.61924316 -13.42405273 11.52950195 -12.76513672 10.40673828 C-11.86432373 8.89345947 -11.86432373 8.89345947 -10.9453125 7.34960938 C-10.41534668 6.45274414 -9.88538086 5.55587891 -9.33935547 4.63183594 C-6.85747584 1.06338219 -4.31154373 -0.13133904 0 0 Z " fill="#065585" transform="translate(1012.828125,385.541015625)"/>
<path d="M0 0 C7.27272762 -0.23046456 14.54449622 -0.38673673 21.82006836 -0.49438477 C24.28852518 -0.53931264 26.75674711 -0.60047959 29.22436523 -0.67895508 C44.81807613 -1.16201597 55.56039977 -0.78223428 68 9 C74.44426053 12.69332292 80.85968359 15.04987091 88 17 C89.06089844 17.33 90.12179687 17.66 91.21484375 18 C105.15048094 22.26377201 118.98058349 23.29623914 133.4375 23.625 C134.86264989 23.66333756 136.28778055 23.70239727 137.71289062 23.7421875 C141.14174717 23.8363979 144.57075471 23.92101916 148 24 C144.83596557 27.21046266 141.7722801 30.05804316 138.0625 32.625 C137.24910156 33.19476562 136.43570312 33.76453125 135.59765625 34.3515625 C132.81711278 36.11605776 129.95270819 37.5463825 127 39 C127.95777344 39.00410889 128.91554688 39.00821777 129.90234375 39.01245117 C133.48865048 39.03438203 137.07388161 39.08881207 140.65966797 39.15258789 C142.20546077 39.17564739 143.751408 39.19013512 145.29736328 39.19555664 C161.1913215 39.26225175 161.1913215 39.26225175 168 45 C172.67426855 49.98588645 173 54.1603206 173 61 C106.34 61 39.68 61 -29 61 C-29 53.90272057 -28.43031714 49.54407766 -23.46875 44.41796875 C-19.6493098 41.1695723 -17.29256721 39.88494233 -12.36669922 39.79467773 C-11.40585419 39.77473251 -10.44500916 39.75478729 -9.45504761 39.73423767 C-8.41542877 39.71752518 -7.37580994 39.70081268 -6.3046875 39.68359375 C-5.24210724 39.66281265 -4.17952698 39.64203156 -3.08474731 39.62062073 C0.31843438 39.55509739 3.72169489 39.49622727 7.125 39.4375 C9.42839366 39.39431743 11.73177926 39.35070323 14.03515625 39.30664062 C19.69002021 39.19941318 25.34496303 39.09765198 31 39 C30.45621704 38.73626587 29.91243408 38.47253174 29.35217285 38.20080566 C28.63589722 37.84901245 27.91962158 37.49721924 27.18164062 37.13476562 C26.47285767 36.78853149 25.76407471 36.44229736 25.03381348 36.08557129 C13.22738736 29.78375583 5.23130922 17.2321867 0.59375 5.05859375 C0 3 0 3 0 0 Z " fill="#1B9531" transform="translate(946,552)"/>
<path d="M0 0 C6.93 0 13.86 0 21 0 C21 12.87 21 25.74 21 39 C25.95 36.525 25.95 36.525 31 34 C38.88096184 31.37301272 47.94996957 31.98024743 55.4375 35.4375 C64.6129277 40.71059236 70.11132686 47.86430478 73 58 C73.55606966 62.1421376 73.62052639 66.19995387 73.5625 70.375 C73.55226807 71.47900146 73.54203613 72.58300293 73.53149414 73.72045898 C73.24051264 84.85936283 70.77794964 93.11078292 62.875 101.3203125 C51.25403276 111.73076232 37.83461117 111.80416284 23 111 C15.11041668 110.37754429 7.68616642 108.9215416 0 107 C0 71.69 0 36.38 0 0 Z " fill="#055484" transform="translate(802,457)"/>
<path d="M0 0 C-0.30904171 2.27130656 -0.62234907 4.54203305 -0.9375 6.8125 C-1.11152344 8.07707031 -1.28554688 9.34164063 -1.46484375 10.64453125 C-2 14 -2 14 -3 17 C-7.1555966 16.54666219 -11.13681044 16.0028302 -15.19140625 14.984375 C-19.9883218 13.90280957 -24.59261623 13.61505294 -29.5 13.625 C-30.74946411 13.62741699 -30.74946411 13.62741699 -32.02416992 13.62988281 C-38.11536957 13.75183833 -42.83917301 14.59479681 -48 18 C-49.051875 18.598125 -50.10375 19.19625 -51.1875 19.8125 C-58.40588164 25.42679683 -61.3086173 31.33236752 -64 40 C-64.33 40.99 -64.66 41.98 -65 43 C-66.14794826 56.08661021 -63.81054362 67.69895102 -55.16796875 78.05859375 C-45.57679433 86.64744724 -34.45443428 87.54086928 -22.25585938 87.15380859 C-18.24300503 86.88020489 -14.50729694 85.9289044 -10.67578125 84.75390625 C-7.52079783 83.86498391 -4.24487615 83.46355374 -1 83 C-0.505 91.91 -0.505 91.91 0 101 C-17.72796986 107.03919852 -39.3501787 110.16127737 -57 102 C-57.73347656 101.69964844 -58.46695312 101.39929688 -59.22265625 101.08984375 C-72.20723603 95.31057992 -80.76765962 84.95627142 -86 72 C-88.55175536 64.4713046 -89.52159871 57.49380891 -89.4375 49.5625 C-89.42992676 48.55550049 -89.42235352 47.54850098 -89.41455078 46.51098633 C-89.15254105 34.68708003 -85.69591751 25.69636662 -79 16 C-78.58363281 15.38640625 -78.16726563 14.7728125 -77.73828125 14.140625 C-70.81374345 5.0742632 -59.78473029 -0.97358731 -49 -4 C-48.32324219 -4.22300781 -47.64648438 -4.44601562 -46.94921875 -4.67578125 C-31.99415666 -8.94450771 -13.85913359 -6.3163308 0 0 Z " fill="#39993D" transform="translate(402,462)"/>
<path d="M0 0 C6.6 0 13.2 0 20 0 C20.495 20.295 20.495 20.295 21 41 C23.64 39.02 26.28 37.04 29 35 C36.97655447 30.81208709 46.45262298 30.35685288 55.0859375 32.9140625 C61.73877834 36.01073016 65.42547321 39.7177668 68.6105957 46.35742188 C70.74083335 52.25103738 70.37104733 58.27954368 70.29296875 64.46875 C70.28872391 65.74480103 70.28447906 67.02085205 70.28010559 68.33557129 C70.26621934 71.70261894 70.23933995 75.06903876 70.20599365 78.43591309 C70.17512035 81.88169983 70.16156367 85.32755185 70.14648438 88.7734375 C70.11349893 95.51581857 70.06175894 102.25782358 70 109 C63.07 109 56.14 109 49 109 C48.98541748 107.42065674 48.97083496 105.84131348 48.95581055 104.21411133 C48.89782447 98.35271601 48.82059072 92.49170473 48.73754883 86.63061523 C48.70430112 84.09422032 48.67626875 81.55775144 48.65356445 79.02124023 C48.6200166 75.37451672 48.56769848 71.72847089 48.51171875 68.08203125 C48.50532883 66.94852737 48.4989389 65.8150235 48.49235535 64.64717102 C48.47256119 63.58644882 48.45276703 62.52572662 48.43237305 61.43286133 C48.41571846 60.03720695 48.41571846 60.03720695 48.39872742 58.61335754 C47.91992101 55.4751426 46.84341606 53.564377 45 51 C40.98569896 48.99284948 36.35208913 49.3758188 32 50 C27.7665025 52.02336278 24.30696089 54.69303911 21 58 C20.66930575 60.22196327 20.66930575 60.22196327 20.68115234 62.81689453 C20.66128265 63.81778107 20.64141296 64.8186676 20.62094116 65.84988403 C20.60938995 66.93325043 20.59783875 68.01661682 20.5859375 69.1328125 C20.56657135 70.23978485 20.5472052 71.3467572 20.5272522 72.48727417 C20.46733246 76.03310369 20.42102127 79.57896545 20.375 83.125 C20.33683165 85.52475397 20.29778061 87.92449408 20.2578125 90.32421875 C20.16162066 96.2160336 20.07763543 102.10791259 20 108 C13.4 108 6.8 108 0 108 C0 72.36 0 36.72 0 0 Z " fill="#34973A" transform="translate(561,458)"/>
<path d="M0 0 C5.61825756 4.9798192 8.73135458 9.7740802 9.24755859 17.42358398 C9.45304269 23.40717509 9.39441632 29.38949169 9.3125 35.375 C9.27570512 38.48717327 9.24797624 41.59794003 9.25120544 44.71034241 C9.25297513 46.63807023 9.23172949 48.5659878 9.18495178 50.4931488 C9.18572283 52.91093133 9.21116458 55.08015078 9.75 57.4375 C12.11910724 59.45551639 12.11910724 59.45551639 14.75 60.4375 C15.2734375 63.1015625 15.2734375 63.1015625 15.125 66.0625 C15.09148437 67.04476562 15.05796875 68.02703125 15.0234375 69.0390625 C14.75 71.4375 14.75 71.4375 13.75 72.4375 C11.15019999 72.6185363 8.60226219 72.71563914 6 72.75 C5.28328125 72.77900391 4.5665625 72.80800781 3.828125 72.83789062 C0.16198271 72.88169563 -2.03668581 72.56531922 -5.203125 70.66796875 C-7.21833266 68.47200773 -7.93719327 67.35702946 -8.25 64.4375 C-8.806875 64.83582031 -9.36375 65.23414063 -9.9375 65.64453125 C-20.29133951 72.83275429 -28.7079291 74.57533736 -41.25 73.4375 C-47.54340808 71.84997364 -51.70379094 67.74514843 -55.25 62.4375 C-58.15942099 56.4864116 -58.1975638 49.596046 -56.3125 43.3125 C-49.41131632 33.6926682 -41.43143665 30.38709726 -30.09765625 27.98046875 C-23.89677676 26.99724262 -17.50620731 27.35166789 -11.25 27.4375 C-11.28320484 25.68669913 -11.35279393 23.93656579 -11.4375 22.1875 C-11.47230469 21.21296875 -11.50710938 20.2384375 -11.54296875 19.234375 C-12.06132001 16.30413219 -12.06132001 16.30413219 -14.26171875 14.109375 C-18.2537642 11.87591689 -21.37323252 11.83238211 -25.875 11.9375 C-26.67172119 11.94523437 -27.46844238 11.95296875 -28.28930664 11.9609375 C-34.05275382 12.129094 -38.89153685 13.17734759 -44.18359375 15.5625 C-46.25 16.4375 -46.25 16.4375 -49.25 16.4375 C-49.91 11.8175 -50.57 7.1975 -51.25 2.4375 C-37.36378395 -7.97716204 -15.10039269 -7.25980418 0 0 Z " fill="#38983E" transform="translate(467.25,494.5625)"/>
<path d="M0 0 C6.86594763 7.36833404 7.68840021 15.30886389 7.87890625 24.98828125 C7.89968735 25.86904831 7.92046844 26.74981537 7.94187927 27.65727234 C8.00703937 30.45893879 8.06610321 33.26069557 8.125 36.0625 C8.16821715 37.96680606 8.21183244 39.87110312 8.25585938 41.77539062 C8.36268623 46.43350218 8.4640474 51.09170422 8.5625 55.75 C9.8825 56.41 11.2025 57.07 12.5625 57.75 C12.58936553 59.72909398 12.60883375 61.70828971 12.625 63.6875 C12.63660156 64.78964844 12.64820313 65.89179687 12.66015625 67.02734375 C12.5625 69.75 12.5625 69.75 11.5625 70.75 C9.13037228 70.90423249 6.74614433 70.98166746 4.3125 71 C3.64347656 71.020625 2.97445312 71.04125 2.28515625 71.0625 C-2.17566324 71.09755556 -4.92382064 70.51608801 -8.4375 67.75 C-10.25 65.5625 -10.25 65.5625 -11.4375 63.75 C-12.00597656 64.15992188 -12.57445312 64.56984375 -13.16015625 64.9921875 C-23.12325493 71.94473383 -32.29299503 72.95164827 -44.25 71.1875 C-50.99438074 68.14591653 -55.63964514 63.62280863 -58.4375 56.75 C-59.39991244 50.31899595 -59.79134346 43.70049133 -55.9375 38.1875 C-49.01185661 30.66731182 -41.30485608 28.56187184 -31.4375 26.75 C-30.4578125 26.56050781 -29.478125 26.37101563 -28.46875 26.17578125 C-25.1274727 25.70645235 -21.93506123 25.65308611 -18.5625 25.6875 C-17.41007813 25.69652344 -16.25765625 25.70554687 -15.0703125 25.71484375 C-14.20148437 25.72644531 -13.33265625 25.73804688 -12.4375 25.75 C-12.5417163 19.03642543 -12.5417163 19.03642543 -15.375 13.1875 C-21.17766641 9.14321735 -29.58195265 10.10691055 -36.4375 10.75 C-39.81181386 11.56855707 -42.89910665 12.58418205 -46.1171875 13.875 C-48.4375 14.75 -48.4375 14.75 -51.4375 14.75 C-52.0975 10.13 -52.7575 5.51 -53.4375 0.75 C-37.92402536 -7.90174547 -15.20203777 -11.04581562 0 0 Z " fill="#055686" transform="translate(778.4375,496.25)"/>
<path d="M0 0 C4.95 0 9.9 0 15 0 C15.495 4.95 15.495 4.95 16 10 C17.01320313 10.19335938 18.02640625 10.38671875 19.0703125 10.5859375 C20.42191568 10.84874923 21.77347592 11.11178183 23.125 11.375 C24.12273437 11.56449219 24.12273437 11.56449219 25.140625 11.7578125 C29.218661 12.5574274 33.08853085 13.59869485 37 15 C36.35083537 21.00477279 34.14204997 26.400781 32 32 C31.43152344 31.80664062 30.86304688 31.61328125 30.27734375 31.4140625 C28.65893079 30.86828718 27.03761426 30.33107447 25.4140625 29.80078125 C23.53350364 29.17697127 21.66916228 28.50419771 19.8125 27.8125 C12.35021558 26.22217709 4.01636773 25.66391572 -3 29 C-3.13956727 32.37346335 -3.13956727 32.37346335 -2 36 C3.53209733 39.91856894 10.26354048 41.37999748 16.74414062 43.16259766 C23.52849599 45.04179582 29.52066739 47.10905028 34.8125 51.9375 C35.93591797 52.94103516 35.93591797 52.94103516 37.08203125 53.96484375 C41.8396404 59.01314185 41.37014051 63.88193506 41.23828125 70.5859375 C40.80552797 76.78636973 39.01613457 80.28016101 34.5625 84.6875 C29.17678055 89.13222014 22.02187011 92 15 92 C15 95.96 15 99.92 15 104 C10.05 104 5.1 104 0 104 C0 100.04 0 96.08 0 92 C-1.134375 92.04125 -2.26875 92.0825 -3.4375 92.125 C-11.52125829 92.09648586 -17.95755865 89.84133164 -25 86 C-24.47606294 80.13190493 -23.23891142 75.45126259 -21 70 C-17.34596328 70.62434081 -14.18592457 71.69303864 -10.75 73.0625 C-5.40968415 74.88245839 -0.58812857 75.40820835 5 75.4375 C6.09489746 75.4521228 6.09489746 75.4521228 7.21191406 75.46704102 C10.39428406 75.41636869 12.66821002 75.18397833 15.47265625 73.62890625 C17.22517777 72.05801883 17.22517777 72.05801883 17.4375 69.5 C16.91565605 66.51803459 16.2824632 65.91219695 14 64 C9.23241593 61.54185115 4.27056303 59.9408746 -1 59 C-10.75721454 57.23572379 -17.95690094 53.78788047 -24.375 46.1875 C-27.50306572 40.16994985 -26.87919633 32.52736671 -26 26 C-24.53990345 22.61977649 -22.69778487 20.46618849 -20 18 C-19.154375 17.071875 -18.30875 16.14375 -17.4375 15.1875 C-12.89376993 11.56231374 -6.56488895 11.01555095 -1 10 C-0.67 6.7 -0.34 3.4 0 0 Z " fill="#33983B" transform="translate(1106,464)"/>
<path d="M0 0 C7.26 0 14.52 0 22 0 C22 30.03 22 60.06 22 91 C36.52 91 51.04 91 66 91 C66 96.94 66 102.88 66 109 C44.22 109 22.44 109 0 109 C0 73.03 0 37.06 0 0 Z " fill="#075685" transform="translate(647,458)"/>
<path d="M0 0 C1.22964478 0.00592163 1.22964478 0.00592163 2.48413086 0.01196289 C10.39978766 0.19698411 17.61943379 1.8722169 24.75 5.4375 C24.42 10.3875 24.09 15.3375 23.75 20.4375 C22.10064453 20.004375 22.10064453 20.004375 20.41796875 19.5625 C8.22673604 16.18400872 8.22673604 16.18400872 -4.25 16.4375 C-6.52474872 17.71850782 -6.52474872 17.71850782 -8.25 19.4375 C-9.00021244 21.89382332 -9.00021244 21.89382332 -8.25 24.4375 C-4.7618661 27.74837846 -1.74286621 29.1211586 2.875 30.3125 C12.65724279 33.14069945 21.34396543 37.1956177 27.34375 45.6953125 C29.90730746 50.69424955 29.45654172 55.97005569 28.75 61.4375 C26.43395172 67.499256 22.29093065 71.77991669 16.421875 74.52734375 C1.19360032 80.93324972 -14.86401064 79.52077672 -30.25 74.4375 C-31.38314263 70.33267207 -31.03328091 67.67799263 -29.8125 63.625 C-29.52503906 62.64917969 -29.23757813 61.67335938 -28.94140625 60.66796875 C-28.71324219 59.93191406 -28.48507812 59.19585938 -28.25 58.4375 C-24.28739113 59.03860267 -20.53581532 59.89207056 -16.6875 61 C-10.03948768 62.68482709 -1.1620668 64.68137778 5.0859375 61.09765625 C7.02282356 59.46716525 7.02282356 59.46716525 7.375 56.5 C7.04998725 53.23848304 7.04998725 53.23848304 4.2421875 51.43359375 C0.47792432 49.08943875 -3.54708742 47.78184111 -7.75 46.4375 C-16.64839539 43.59126457 -23.61130728 39.70733083 -29.0625 31.8125 C-30.99077013 26.33215333 -31.49901947 20.67384823 -29.37109375 15.16015625 C-25.16844074 7.93381229 -19.59892039 3.53224924 -11.69824219 1.04174805 C-7.783004 0.07543228 -4.0178886 -0.05027035 0 0 Z " fill="#38993E" transform="translate(520.25,489.5625)"/>
<path d="M0 0 C0.94072861 -0.00990463 1.88145721 -0.01980927 2.85069275 -0.03001404 C3.88090546 -0.02551239 4.91111816 -0.02101074 5.97254944 -0.01637268 C7.60216866 -0.02666756 7.60216866 -0.02666756 9.26470947 -0.03717041 C12.8654528 -0.05551144 16.46576345 -0.05159035 20.06654358 -0.0459137 C22.5637425 -0.05047202 25.06094016 -0.05577654 27.55813599 -0.0617981 C32.79624896 -0.07074359 38.03424907 -0.06852257 43.27235413 -0.05836487 C49.32607707 -0.04688489 55.37935694 -0.06095533 61.43302149 -0.08776134 C67.25776499 -0.11258749 73.08233598 -0.11509679 78.90712166 -0.10864449 C81.38509928 -0.10849083 83.86308525 -0.11457138 86.34103203 -0.12693596 C89.80317731 -0.14177617 93.26434158 -0.13121911 96.72645569 -0.11402893 C97.75464417 -0.1236969 98.78283264 -0.13336487 99.84217834 -0.14332581 C106.77429663 -0.07107578 106.77429663 -0.07107578 110.05117798 2.27816772 C111.62726672 4.71743796 111.92496232 6.06363782 111.85169983 8.95018005 C111.85041077 9.71459412 111.8491217 10.47900818 111.84779358 11.2665863 C111.30172435 13.93789795 110.5421345 14.71045445 108.41419983 16.38768005 C106.27026272 16.76520348 106.27026272 16.76520348 103.73901367 16.76863098 C102.77856644 16.77709045 101.8181192 16.78554993 100.8285675 16.79426575 C99.77651123 16.78819305 98.72445496 16.78212036 97.64051819 16.77586365 C96.53138565 16.78112061 95.42225311 16.78637756 94.2795105 16.79179382 C90.60421267 16.80502471 86.929346 16.7962451 83.25404358 16.78611755 C80.70721351 16.78813725 78.160384 16.79104781 75.61355591 16.79481506 C70.27287259 16.7992425 64.93234469 16.79307813 59.59169006 16.77879333 C53.41302496 16.76245817 47.23465669 16.76776104 41.05599874 16.78427255 C35.11593644 16.79951227 29.1759666 16.79791822 23.23588753 16.78912735 C20.70602439 16.78712058 18.17615371 16.78960122 15.64629936 16.79656601 C12.11682171 16.80415032 8.58792138 16.79261859 5.05848694 16.77586365 C3.47736618 16.78497269 3.47736618 16.78497269 1.86430359 16.79426575 C0.90667618 16.78580627 -0.05095123 16.7773468 -1.03759766 16.76863098 C-1.87253282 16.7674999 -2.70746798 16.76636883 -3.5677042 16.76520348 C-4.56666171 16.57832938 -4.56666171 16.57832938 -5.58580017 16.38768005 C-7.73133394 13.1693794 -7.88163885 12.11981498 -7.89830017 8.38768005 C-7.91505798 7.52143005 -7.9318158 6.65518005 -7.94908142 5.76268005 C-7.22276508 1.01428934 -4.46654831 0.01326858 0 0 Z " fill="#055586" transform="translate(924.5858001708984,525.6123199462891)"/>
<path d="M0 0 C4.06764877 2.33468598 6.0964095 5.1788427 7.96484375 9.44140625 C10.0045401 17.10201697 10.50596417 26.96534607 7.25 34.3125 C4.51103197 38.67128783 0.41146399 42.325518 -4.1875 44.625 C-6.47669778 44.74835276 -8.77001218 44.80058478 -11.0625 44.8125 C-12.29742188 44.82667969 -13.53234375 44.84085938 -14.8046875 44.85546875 C-18.02263376 44.63623223 -19.45077173 44.13307699 -22.1875 42.625 C-22.36086019 37.30493773 -22.48771004 31.98652647 -22.57202148 26.66430664 C-22.60717223 24.855096 -22.65490465 23.0460835 -22.71557617 21.23754883 C-22.80074405 18.63312947 -22.84023783 16.03134139 -22.87109375 13.42578125 C-22.90722275 12.62038406 -22.94335175 11.81498688 -22.98057556 10.98518372 C-22.98439865 5.48674043 -22.98439865 5.48674043 -20.6880188 3.00350952 C-14.35325871 -1.65966313 -7.39778076 -2.98433201 0 0 Z " fill="#FAFBFC" transform="translate(845.1875,507.375)"/>
<path d="M0 0 C4.37234304 1.4601821 7.35180262 3.30318782 10.5 6.6875 C12.44361035 10.97963952 12.94089937 14.36788003 12 19 C9.94321934 23.29241182 7.5108717 26.28538802 3 28 C-2.54134336 28.72410952 -7.37744816 29.1258523 -12.0625 25.875 C-15.70183499 20.47469646 -17.83376492 16.67011936 -17 10 C-13.32491798 2.79118526 -8.22687702 -1.13474166 0 0 Z " fill="#F6F8FA" transform="translate(1034,432)"/>
<path d="M0 0 C6.98366949 0.34042957 12.12026253 3.42633979 18.125 6.8125 C19.10082031 7.34681641 20.07664062 7.88113281 21.08203125 8.43164062 C30.84700421 13.84700421 30.84700421 13.84700421 34 17 C34.15868233 21.36376414 33.39624348 23.44059744 30.875 27 C28 29 28 29 24.6875 29.125 C20.98007594 27.99392147 18.42264513 26.60186812 15.2421875 24.4609375 C12.69056576 22.79838257 10.06127532 21.37163615 7.375 19.9375 C5.58282202 18.95926952 3.79110524 17.98019326 2 17 C1.34 16.65066406 0.68 16.30132812 0 15.94140625 C-2.78783319 14.32633942 -3.92340514 13.18140887 -5.1875 10.1875 C-4.92542816 5.73227872 -2.83554855 3.3163163 0 0 Z " fill="#0B5988" transform="translate(952,486)"/>
<path d="M0 0 C3.52393551 0.37123943 5.39914234 1.23357872 8.40454102 3.07348633 C9.35522461 3.64647461 10.3059082 4.21946289 11.28540039 4.80981445 C12.26186523 5.41631836 13.23833008 6.02282227 14.24438477 6.64770508 C15.2247168 7.24260742 16.20504883 7.83750977 17.21508789 8.45043945 C19.04364166 9.56147518 20.86898535 10.6778247 22.68994141 11.80126953 C24.42986428 12.87229289 26.17996805 13.92687472 27.9375 14.96875 C30.18188477 16.33520508 30.18188477 16.33520508 31.18188477 17.33520508 C31.97249642 21.8153378 30.2142708 24.37380296 27.86157227 27.97973633 C25.30694668 30.04125977 23.39660955 29.60173077 20.18188477 29.33520508 C17.36108398 28.09765625 17.36108398 28.09765625 14.48657227 26.37817383 C13.44114258 25.76006836 12.39571289 25.14196289 11.31860352 24.50512695 C10.24223633 23.85092773 9.16586914 23.19672852 8.05688477 22.52270508 C6.9727832 21.88010742 5.88868164 21.23750977 4.77172852 20.57543945 C0.43288498 17.98768667 -3.82462776 15.43805443 -7.81811523 12.33520508 C-7.3081391 6.98045564 -6.12259631 0.72826169 0 0 Z " fill="#0A5685" transform="translate(1025.818115234375,364.664794921875)"/>
<path d="M0 0 C2.475 0.495 2.475 0.495 5 1 C4.46567963 6.18907281 1.87045872 10.05617276 -0.75 14.4375 C-1.235896 15.2622583 -1.72179199 16.0870166 -2.22241211 16.93676758 C-3.26681156 18.70769137 -4.31436346 20.47675906 -5.36474609 22.24414062 C-7.00970688 25.0163588 -8.64119202 27.79611592 -10.26953125 30.578125 C-12.97543536 35.19582664 -15.70555093 39.79849415 -18.44970703 44.39355469 C-19.93638953 46.89305427 -21.40414911 49.40294738 -22.87109375 51.9140625 C-23.74625636 53.38088879 -24.62249003 54.84707679 -25.5 56.3125 C-25.88486572 56.98240967 -26.26973145 57.65231934 -26.66625977 58.3425293 C-28.46018664 61.29207975 -29.43772411 62.81441737 -32.78125 63.91796875 C-33.5134375 63.94503906 -34.245625 63.97210938 -35 64 C-36.00745407 60.87010057 -36.21877615 59.46829536 -34.8046875 56.44140625 C-34.16789063 55.49136719 -33.53109375 54.54132813 -32.875 53.5625 C-32.12613233 52.41326111 -31.38026372 51.26206476 -30.63671875 50.109375 C-30.21825684 49.46548828 -29.79979492 48.82160156 -29.36865234 48.15820312 C-26.69615865 43.94399615 -24.20851866 39.61835672 -21.6875 35.3125 C-17.48765065 28.17734443 -13.25272627 21.06604458 -8.9375 14 C-8.49688232 13.27723877 -8.05626465 12.55447754 -7.60229492 11.80981445 C-5.15227055 7.8123564 -2.62730982 3.88332168 0 0 Z " fill="#ECF2F5" transform="translate(1011,400)"/>
<path d="M0 0 C0.90994638 12.45278477 0.90994638 12.45278477 -1.16015625 15.97265625 C-2.6875 17.25 -2.6875 17.25 -6 19 C-6.763125 19.433125 -7.52625 19.86625 -8.3125 20.3125 C-12.25269038 21.32045568 -15.96651034 21.6137919 -20 21 C-22.87029869 19.20606332 -24.49131638 18.01736724 -26 15 C-26.55161005 10.95485964 -26.19716798 9.31423647 -24 5.8125 C-17.43149135 -1.13917165 -8.86554755 -0.36489296 0 0 Z " fill="#F3F7F9" transform="translate(766,533)"/>
<path d="M0 0 C0.78358209 12.8681592 0.78358209 12.8681592 -2.25 17.25 C-8.23249697 21.05704353 -12.88041554 21.99000139 -20 21 C-23.1875 19.0625 -23.1875 19.0625 -25 16 C-25.73758921 12.81338413 -25.80187111 10.17864015 -25 7 C-18.46021797 -0.68424389 -9.39123107 -0.31073926 0 0 Z " fill="#F8FBF8" transform="translate(456,533)"/>
<path d="M0 0 C0.66 0.33 1.32 0.66 2 1 C1.67 1.33 1.34 1.66 1 2 C14.365 2.495 14.365 2.495 28 3 C28 3.33 28 3.66 28 4 C17.11 4 6.22 4 -5 4 C-2 1 -2 1 0 0 Z " fill="#B2DEB9" transform="translate(1077,588)"/>
<path d="M0 0 C1.98 0 3.96 0 6 0 C6 0.66 6 1.32 6 2 C4.03852126 3.38938077 2.03833424 4.7260411 0 6 C0 4.02 0 2.04 0 0 Z " fill="#2C9F44" transform="translate(1086,577)"/>
<path d="M0 0 C0.66 0 1.32 0 2 0 C1.34 3.63 0.68 7.26 0 11 C-0.33 11 -0.66 11 -1 11 C-1.22174933 9.54364629 -1.42698698 8.08477044 -1.625 6.625 C-1.74101562 5.81289063 -1.85703125 5.00078125 -1.9765625 4.1640625 C-1.98429687 3.44992187 -1.99203125 2.73578125 -2 2 C-1.34 1.34 -0.68 0.68 0 0 Z " fill="#4FA453" transform="translate(418,495)"/>
</svg>
